<svg width="199" height="193" viewBox="0 0 199 193" fill="none" xmlns="http://www.w3.org/2000/svg">
<path d="M166.269 157.379H147.302C147.17 157.896 146.916 158.372 146.562 158.77C146.207 159.168 145.763 159.476 145.266 159.667C145.344 159.78 147.857 163.409 149.028 165.114C149.297 165.409 149.474 165.778 149.533 166.173C149.533 166.412 149.46 166.646 149.324 166.845C149.19 167.043 148.997 167.195 148.774 167.282C148.55 167.369 148.306 167.386 148.073 167.332C147.839 167.279 147.627 167.155 147.464 166.979C146.953 166.431 144.741 164.165 144.342 163.756C144.09 164.069 143.789 164.34 143.451 164.558C142.286 165.215 140.963 165.535 139.628 165.482C139.906 165.837 140.11 166.244 140.227 166.679C140.343 167.115 140.371 167.569 140.307 168.015C140.244 168.462 140.091 168.89 139.858 169.276C139.625 169.661 139.317 169.996 138.951 170.259C138.026 170.956 137.005 171.516 135.92 171.921C134.562 172.443 133.219 173.008 131.861 173.538C120.053 178.136 108.08 181.973 95.624 183.62C95.624 184.044 95.6439 184.497 95.6439 184.497C95.6452 184.599 95.6861 184.696 95.7577 184.767C95.8294 184.839 95.9261 184.88 96.0274 184.881H166.266C166.367 184.88 166.465 184.839 166.536 184.767C166.608 184.696 166.648 184.599 166.65 184.497V157.763C166.648 157.663 166.608 157.565 166.537 157.494C166.466 157.422 166.369 157.381 166.269 157.379Z" fill="#EAEAEA"/>
<path d="M149.032 165.114C147.86 163.409 145.347 159.785 145.27 159.667C145.129 159.715 144.985 159.749 144.838 159.771C145.154 160.41 145.277 161.128 145.19 161.835C145.103 162.543 144.811 163.209 144.349 163.753C145.365 164.798 146.382 165.843 147.4 166.888C147.552 167.085 147.762 167.231 147.999 167.303C148.237 167.376 148.492 167.372 148.728 167.292C148.964 167.213 149.169 167.061 149.314 166.86C149.461 166.657 149.539 166.414 149.54 166.166C149.479 165.773 149.302 165.407 149.032 165.114Z" fill="#B999BE"/>
<path d="M114.542 117.449C114.497 117.383 114.427 117.339 114.349 117.324C114.271 117.309 114.19 117.326 114.124 117.37C113.893 117.527 112.014 119.091 106.661 123.509C106.591 123.582 106.553 123.678 106.553 123.78C106.553 123.88 106.591 123.977 106.661 124.05C111.111 128.857 111.537 129.716 122.859 141.575C126.709 141.307 130.562 142.051 134.034 143.734C127.166 134.141 114.63 117.563 114.542 117.449Z" fill="#B999BE"/>
<path d="M118.009 8.56423C117.413 6.74582 116.365 5.10852 114.964 3.80592C113.563 2.50323 111.853 1.57783 109.996 1.1165C107.859 0.584598 112.869 0.745528 41.0448 0.745528C40.3028 0.745528 39.5556 0.726718 38.8158 0.795688C35.9524 1.06038 33.2912 2.38502 31.3537 4.50994C29.4164 6.63485 28.3426 9.40681 28.3428 12.2823V34.9808C35.6431 31.6096 42.9195 35.5911 44.1651 41.5643C50.3901 36.898 56.9746 32.7318 63.8571 29.1047C65.6733 28.2061 67.8615 27.601 69.5921 28.9804C70.2674 29.5319 70.7959 30.2421 71.1303 31.0474C71.4647 31.8528 71.5947 32.7284 71.5086 33.5962C71.0822 38.4136 65.8405 42.4358 62.0691 45.4256H118.239C118.34 45.4239 118.436 45.3829 118.507 45.3113C118.58 45.2398 118.62 45.1432 118.621 45.042V31.688H115.371C115.305 31.6867 115.239 31.6682 115.181 31.6342C115.124 31.6002 115.077 31.5517 115.043 31.4937C115.01 31.4357 114.992 31.3701 114.992 31.3032C114.991 31.2363 115.009 31.1705 115.041 31.1122C115.283 30.6942 116.7 28.2667 118.621 24.9666V16.6201C116.983 17.1531 115.361 16.0778 115.186 13.8467C115.073 12.39 115.678 9.96244 113.975 9.17451C113.621 9.05151 113.232 9.0721 112.893 9.23177C112.553 9.39155 112.29 9.67778 112.159 10.0293C111.847 10.7654 111.719 11.5671 111.789 12.3638C111.811 13.7537 111.988 15.9534 110.212 16.3463C109.514 16.5042 108.784 16.4083 108.15 16.0757C107.502 15.6656 107.026 15.0315 106.815 14.294C106.495 12.5925 106.5 10.8457 106.832 9.1463C106.891 8.66351 107.668 8.65933 107.597 9.1463C107.457 10.1641 107.371 11.1885 107.34 12.2155C107.27 13.0805 107.446 13.9478 107.847 14.7172C107.985 14.9573 108.175 15.1639 108.402 15.3218C108.63 15.4797 108.889 15.5852 109.163 15.6304C109.436 15.6756 109.716 15.6595 109.982 15.5832C110.249 15.507 110.494 15.3725 110.702 15.1895C111.576 13.574 110.351 10.9353 111.877 9.09196C112.12 8.79173 112.441 8.56402 112.806 8.4336C113.17 8.30308 113.563 8.27497 113.941 8.35209C114.297 8.4615 114.627 8.64553 114.907 8.89205C115.188 9.13846 115.412 9.44172 115.567 9.78166C116.315 11.4004 115.542 13.2302 116.202 14.8593C116.29 15.0882 116.424 15.2962 116.596 15.47C116.77 15.6437 116.977 15.7792 117.205 15.8679C117.433 15.9566 117.678 15.9963 117.922 15.9846C118.167 15.9728 118.407 15.9098 118.626 15.7998V13.551C118.719 11.8653 118.51 10.1766 118.009 8.56423ZM64.6618 12.7954L59.2142 19.3789C59.3636 19.5399 62.8717 23.3573 64.4768 25.1045C64.8101 25.4671 64.2678 26.0105 63.9355 25.6458C63.7087 25.3992 60.0554 21.3989 58.4367 19.6632C58.368 19.5898 58.3298 19.493 58.3298 19.3925C58.3298 19.292 58.368 19.1952 58.4367 19.1219C58.6708 18.8408 62.4589 14.2647 64.1204 12.2583C64.435 11.8717 64.9742 12.4161 64.6618 12.7954ZM80.8154 13.2573C80.8154 13.2573 71.6706 22.5139 68.3903 25.6803C68.3174 25.7469 68.2215 25.7827 68.1228 25.7804C68.0241 25.7781 67.9301 25.7379 67.8603 25.668C67.7906 25.598 67.7505 25.5039 67.7483 25.4052C67.7462 25.3065 67.7822 25.2108 67.849 25.1379C68.7487 24.2079 76.9938 15.8855 80.273 12.7139C80.3458 12.6471 80.4416 12.6111 80.5403 12.6133C80.639 12.6154 80.7331 12.6555 80.803 12.7252C80.8729 12.795 80.9132 12.8891 80.9155 12.9877C80.9178 13.0865 80.8819 13.1823 80.8154 13.2552V13.2573ZM89.8191 19.659C89.5913 19.9046 85.9275 23.8944 84.3213 25.6416C83.9869 26.0063 83.4467 25.4629 83.78 25.1003L89.0416 19.3748C88.888 19.1877 85.2566 14.8018 83.5951 12.7913C83.2816 12.414 83.8218 11.8696 84.1364 12.2499L89.8191 19.1135C89.8888 19.1868 89.9278 19.284 89.9278 19.3852C89.9278 19.4864 89.8888 19.5837 89.8191 19.6569V19.659Z" fill="white"/>
<path d="M64.1207 12.252L58.437 19.1155C58.3683 19.1889 58.3301 19.2856 58.3301 19.3862C58.3301 19.4867 58.3683 19.5835 58.437 19.6568C60.0557 21.3926 63.709 25.3928 63.9358 25.6395C64.2702 26.0031 64.8104 25.4608 64.4771 25.0981L59.2145 19.3726L64.6621 12.7891C64.9745 12.416 64.4353 11.8716 64.1207 12.252Z" fill="#B999BE"/>
<path d="M89.0414 19.3725L83.7798 25.0981C83.4465 25.4607 83.9888 26.0041 84.3211 25.6394C85.9273 23.8922 89.5911 19.9023 89.8189 19.6568C89.8881 19.5836 89.9265 19.4868 89.9265 19.3861C89.9265 19.2855 89.8881 19.1886 89.8189 19.1155L84.1383 12.2519C83.8248 11.8715 83.2845 12.416 83.597 12.7932C89.9527 20.4719 88.2347 18.3975 89.0414 19.3725Z" fill="#B999BE"/>
<path d="M118.339 52.2055C118.339 47.8364 118.367 48.0861 118.276 47.9492C118.315 48.0228 118.332 48.1065 118.323 48.1896C118.314 48.2726 118.281 48.3512 118.227 48.4153C118.227 48.4153 93.2509 77.2124 92.0095 78.6304C90.3371 80.5607 88.255 82.0932 85.9148 83.116C83.5745 84.1387 81.0355 84.6259 78.483 84.542H48.6618C48.435 85.029 48.2104 85.517 47.9805 86.005C52.5482 85.0718 54.9381 86.5985 57.4806 85.1157C57.5251 85.0906 57.5741 85.0746 57.6249 85.0687C57.6756 85.0628 57.727 85.067 57.7761 85.0811C57.8252 85.0952 57.871 85.1189 57.9109 85.1508C57.9507 85.1828 57.9838 85.2224 58.0083 85.2672C58.2108 86.4651 58.1007 87.6951 57.6885 88.838C57.5997 89.0971 57.5004 89.3521 57.3876 89.6029C57.3876 89.6029 77.1569 89.6029 79.0191 89.6029C81.6017 89.6105 84.1526 89.0354 86.482 87.92C88.8114 86.8048 90.859 85.1782 92.4724 83.1615C94.4924 80.7925 117.372 54.4627 118.025 53.7103C118.185 53.5721 118.294 53.3852 118.338 53.1784C118.356 52.8543 118.357 52.5296 118.339 52.2055Z" fill="#EAEAEA"/>
<path d="M117.957 47.7609H59.2386C56.5665 50.1017 54.1933 52.7821 53.6603 56.3111H70.1149C70.213 56.3162 70.3054 56.3587 70.373 56.43C70.4406 56.5012 70.4784 56.5958 70.4784 56.694C70.4784 56.7923 70.4406 56.8867 70.373 56.958C70.3054 57.0293 70.213 57.0719 70.1149 57.077H53.582C53.4103 58.2919 53.6928 59.5273 54.3757 60.5466C55.0586 61.5659 56.0935 62.2974 57.2823 62.6009C59.4676 63.082 61.6761 63.451 63.8993 63.7065C69.4524 64.5425 71.1568 64.6606 73.0775 65.4057H82.0572C82.1553 65.4108 82.2477 65.4533 82.3153 65.5246C82.3829 65.5959 82.4206 65.6905 82.4206 65.7887C82.4206 65.8869 82.3829 65.9814 82.3153 66.0526C82.2477 66.1239 82.1553 66.1666 82.0572 66.1717H74.4517C77.5553 68.3996 76.4058 72.9464 73.1151 74.819H92.6921C92.7903 74.8242 92.8826 74.8667 92.9503 74.938C93.0179 75.0092 93.0556 75.1038 93.0556 75.202C93.0556 75.3003 93.0179 75.3947 92.9503 75.466C92.8826 75.5373 92.7903 75.5799 92.6921 75.585H71.4682C69.7485 76.1344 67.9728 76.4898 66.1742 76.6447C61.4593 77.1163 56.7155 77.2326 51.9831 76.9927C50.9569 79.5142 49.8064 82.0985 48.6621 84.5459H78.4833C81.0361 84.6292 83.5753 84.1413 85.9155 83.1178C88.2557 82.0943 90.3378 80.5611 92.0098 78.6302C93.2512 77.21 118.228 48.4129 118.228 48.4129C118.277 48.3581 118.31 48.2903 118.323 48.2174C118.335 48.1445 118.327 48.0697 118.299 48.0013C118.27 47.9331 118.223 47.8742 118.163 47.8317C118.102 47.7891 118.031 47.7645 117.957 47.7609ZM109.283 57.077H94.3944C94.2963 57.0719 94.2039 57.0293 94.1362 56.958C94.0686 56.8867 94.0309 56.7923 94.0309 56.694C94.0309 56.5958 94.0686 56.5012 94.1362 56.43C94.2039 56.3587 94.2963 56.3162 94.3944 56.3111H109.286C109.365 56.3392 109.433 56.3911 109.482 56.4597C109.53 56.5282 109.556 56.6101 109.556 56.694C109.556 56.778 109.53 56.8598 109.482 56.9284C109.433 56.997 109.365 57.0489 109.286 57.077H109.283ZM74.9794 57.077C74.8813 57.0719 74.7889 57.0293 74.7212 56.958C74.6536 56.8867 74.6158 56.7923 74.6158 56.694C74.6158 56.5958 74.6536 56.5012 74.7212 56.43C74.7889 56.3587 74.8813 56.3162 74.9794 56.3111H89.5467C89.6448 56.3162 89.7372 56.3587 89.8048 56.43C89.8724 56.5012 89.9101 56.5958 89.9101 56.694C89.9101 56.7923 89.8724 56.8867 89.8048 56.958C89.7372 57.0293 89.6448 57.0719 89.5467 57.077H74.9794ZM86.7053 66.1685C86.6072 66.1634 86.5148 66.1208 86.4471 66.0495C86.3795 65.9782 86.3418 65.8838 86.3418 65.7855C86.3418 65.6873 86.3795 65.5927 86.4471 65.5215C86.5148 65.4502 86.6072 65.4077 86.7053 65.4026H101.146C101.244 65.4077 101.336 65.4502 101.404 65.5215C101.472 65.5927 101.51 65.6873 101.51 65.7855C101.51 65.8838 101.472 65.9782 101.404 66.0495C101.336 66.1208 101.244 66.1634 101.146 66.1685H86.7053Z" fill="#B999BE"/>
<path d="M73.0749 65.4058C71.1824 64.6566 69.1792 64.4977 63.8967 63.7067C59.5495 63.0556 58.7657 62.9752 57.2798 62.601C54.9808 62.0252 53.4028 60.0398 53.5815 57.0772C53.8124 53.2535 56.3581 50.2784 59.2381 47.761C63.6459 43.9091 70.9943 39.4083 71.5085 33.596C71.5946 32.7283 71.4647 31.8527 71.1303 31.0473C70.7959 30.2419 70.2674 29.5318 69.5919 28.9803C67.8614 27.6009 65.6732 28.2059 63.857 29.1046C56.9717 32.7271 50.3867 36.8939 44.165 41.5652C43.8018 40.0467 43.0882 38.6344 42.0816 37.4409C41.0748 36.2475 39.8029 35.3062 38.3673 34.6922C33.1225 32.3713 27.1723 34.4832 23.358 38.6392C21.6338 35.5345 17.7558 34.3892 14.3773 34.8636C10.0583 35.4708 6.86686 38.8482 4.96291 42.5674C2.76502 47.2568 1.40346 52.2942 0.939663 57.4523C0.562418 61.4568 0.718123 61.9019 0.608398 88.6174C0.609757 88.5163 0.650481 88.4199 0.721917 88.3484C0.793353 88.277 0.889859 88.2363 0.990869 88.2349C4.89812 88.2067 -11.4572 88.2349 42.5212 88.2349C44.1798 87.1488 46.0318 86.3917 47.9761 86.0049C49.7714 82.2167 51.0651 79.2343 51.9785 76.9907C56.7122 77.2316 61.4575 77.1159 66.1738 76.6448C67.9739 76.5015 69.7508 76.1465 71.4677 75.5873C76.9425 73.7188 78.0899 67.3892 73.0749 65.4058ZM35.9847 52.7519C35.8008 53.2034 35.061 53.0059 35.2459 52.5492C36.6429 49.0895 38.8519 46.0167 41.6863 43.5904C42.0593 43.2769 42.6038 43.8119 42.2276 44.1317C39.4855 46.4629 37.3443 49.4194 35.9847 52.7519ZM16.0503 48.6304C17.2953 45.8079 19.0208 43.2228 21.1499 40.9904C21.4906 40.632 22.0309 41.1744 21.6912 41.5318C19.611 43.7197 17.9261 46.252 16.7118 49.016C16.5143 49.4675 15.8539 49.0767 16.0503 48.6304Z" fill="white"/>
<path d="M145.769 153.109C142.906 149.866 139.594 147.051 135.931 144.749C129.962 141.181 124.612 141.137 117.825 142.05C113.526 142.628 106.712 143.907 106.419 144.036C106.474 144.025 106.531 144.026 106.585 144.04C106.638 144.054 106.69 144.079 106.732 144.114C106.776 144.149 106.812 144.194 106.836 144.244C106.861 144.294 106.874 144.349 106.875 144.405C106.875 144.972 107.034 164.898 106.875 181.247C106.874 181.326 106.848 181.402 106.804 181.466C106.759 181.529 106.695 181.577 106.621 181.605C112.373 180.25 118.047 178.58 123.615 176.602C130.94 174.02 133.424 172.875 135.923 171.921C137.009 171.516 138.029 170.956 138.954 170.259C139.32 169.996 139.628 169.661 139.861 169.276C140.094 168.89 140.248 168.462 140.31 168.015C140.374 167.569 140.346 167.115 140.23 166.679C140.113 166.244 139.909 165.837 139.631 165.482C140.967 165.535 142.291 165.215 143.454 164.558C144.231 164.068 144.801 163.311 145.056 162.429C145.31 161.547 145.231 160.602 144.834 159.775C145.519 159.627 146.137 159.261 146.598 158.734C147.058 158.205 147.334 157.542 147.386 156.843C147.331 155.441 146.755 154.109 145.769 153.109ZM125.157 163.531C128.78 163.784 132.39 164.168 135.988 164.681C136.087 164.708 136.169 164.773 136.219 164.862C136.269 164.949 136.283 165.054 136.256 165.152C136.227 165.248 136.161 165.33 136.074 165.38C135.986 165.429 135.883 165.444 135.784 165.42C132.257 164.915 128.714 164.54 125.157 164.293C124.668 164.263 124.666 163.497 125.157 163.531ZM128.76 152.136C128.32 151.912 128.709 151.252 129.147 151.474L141.912 157.946C142.352 158.168 141.965 158.829 141.526 158.606L128.76 152.136Z" fill="white"/>
<path d="M106.874 144.405C106.873 144.355 106.863 144.304 106.843 144.258C106.823 144.212 106.794 144.171 106.758 144.136C106.722 144.101 106.679 144.074 106.633 144.055C106.586 144.037 106.536 144.028 106.485 144.029C105.174 144.051 85.7526 148.984 76.1104 150.972C75.22 146.975 73.9487 143.074 72.3139 139.322C70.7467 135.62 68.6073 132.19 65.9739 129.153C57.1959 119.174 42.6338 117.143 29.5484 121.354C31.8132 117.253 34.0533 113.136 36.2687 109.006C35.6755 107.541 35.3856 105.971 35.4168 104.39C35.4478 102.81 35.7991 101.251 36.4495 99.8104C36.8899 98.8804 37.5766 98.0893 38.435 97.5219C38.5344 97.2178 38.6589 96.9221 38.8071 96.6378C37.7234 95.4413 38.2741 93.3596 39.0422 91.9123C39.88 90.4154 41.0792 89.1519 42.5304 88.2371H0.994774C0.893671 88.2382 0.797019 88.2788 0.72553 88.3503C0.654042 88.4218 0.613391 88.5185 0.612304 88.6195C0.548559 95.3002 0.224609 184.347 0.224609 184.814C0.225696 184.915 0.266346 185.011 0.337835 185.083C0.409323 185.155 0.505976 185.195 0.60708 185.196H77.2411C77.3423 185.195 77.439 185.155 77.5107 185.083C77.5824 185.011 77.6233 184.915 77.6246 184.814C77.6246 184.648 77.6246 184.483 77.6246 184.316C87.3594 184.82 97.116 183.911 106.59 181.616L106.617 181.605C106.69 181.578 106.754 181.529 106.8 181.466C106.845 181.402 106.87 181.326 106.871 181.247C106.875 181.145 106.878 144.904 106.874 144.405ZM81.859 180.1H87.1299C87.2281 180.105 87.3204 180.148 87.3881 180.219C87.4558 180.29 87.4934 180.384 87.4934 180.483C87.4934 180.582 87.4558 180.676 87.3881 180.747C87.3204 180.818 87.2281 180.861 87.1299 180.866H81.859C81.7608 180.861 81.6685 180.818 81.6008 180.747C81.5331 180.676 81.4954 180.582 81.4954 180.483C81.4954 180.384 81.5331 180.29 81.6008 180.219C81.6685 180.148 81.7608 180.105 81.859 180.1ZM75.7164 151.049C76.1982 150.952 76.403 151.691 75.9255 151.788C65.5225 153.878 60.8545 154.4 50.9082 150.811C39.8552 146.822 31.1681 142.293 20.9898 138.48C20.5321 138.307 20.7317 137.567 21.1988 137.741C32.211 141.87 48.6719 150.109 57.7738 152.064C63.7909 153.348 69.6669 152.27 75.7164 151.049ZM19.2791 99.2754C19.3836 99.7561 18.6521 99.9588 18.5403 99.4792C18.279 98.3495 18.379 97.1655 18.8263 96.0953C19.2737 95.025 20.0459 94.1223 21.0337 93.5143C21.8537 93.1245 22.7539 92.9331 23.6616 92.9554C24.5691 92.9777 25.4589 93.2132 26.2587 93.6428C27.4225 94.3859 28.3865 95.4027 29.0666 96.6044C30.352 98.499 33.2602 103.71 34.3689 105.718C34.4202 105.806 34.4346 105.91 34.409 106.008C34.3833 106.107 34.3196 106.19 34.232 106.241C34.1887 106.266 34.1407 106.283 34.091 106.29C34.0412 106.297 33.9905 106.294 33.942 106.281C33.8437 106.256 33.7598 106.192 33.7085 106.104C31.0343 101.634 28.2379 95.5939 25.9389 94.3472C25.2314 93.9392 24.4317 93.7176 23.6151 93.7031C22.7984 93.6886 21.9914 93.8818 21.2699 94.2646C20.4662 94.7967 19.8446 95.5621 19.4887 96.4579C19.1328 97.3536 19.0597 98.337 19.2791 99.2754ZM3.72849 93.136C3.73362 93.0379 3.77621 92.9455 3.84747 92.8779C3.91874 92.8102 4.01324 92.7726 4.11149 92.7726C4.20974 92.7726 4.30424 92.8102 4.37551 92.8779C4.44676 92.9455 4.48935 93.0379 4.49448 93.136V99.3485C4.48935 99.4468 4.44676 99.5387 4.37551 99.6067C4.30424 99.6746 4.20974 99.7122 4.11149 99.7122C4.01324 99.7122 3.91874 99.6746 3.84747 99.6067C3.77621 99.5387 3.73362 99.4468 3.72849 99.3485V93.136ZM77.2495 184.291C59.6726 183.101 48.6604 177.214 34.4734 167.609C23.7037 160.318 20.1016 157.191 12.7061 152.118C12.3027 151.841 12.6862 151.177 13.0927 151.457C21.3994 157.156 23.1038 159.002 36.2228 167.864C49.5089 176.841 60.8106 182.482 77.2495 183.523C77.726 183.556 77.7479 184.325 77.2495 184.291Z" fill="white"/>
<path d="M38.2013 98.6671C36.0141 100.884 35.7915 105.209 36.7477 108.101C37.7851 106.158 38.8144 104.21 39.8357 102.258C39.2872 101.842 38.8508 101.295 38.5656 100.668C38.2803 100.042 38.1551 99.3537 38.2013 98.6671Z" fill="white"/>
<path d="M58.0562 85.4458C58.0547 85.379 58.0359 85.3138 58.0018 85.2564C57.9678 85.199 57.9194 85.1514 57.8615 85.1182C57.8035 85.085 57.738 85.0673 57.6713 85.0668C57.6045 85.0664 57.5388 85.0832 57.4804 85.1156C55.3151 86.379 53.1248 85.4468 49.6157 85.7426C45.6447 86.0801 40.9422 88.3175 39.0372 91.9081C38.2722 93.3481 37.7205 95.4381 38.802 96.6336C40.8105 92.7796 45.8746 92.4295 49.0974 94.833C49.3504 95.0022 49.5808 95.2031 49.7829 95.4308C51.9594 94.8955 53.9588 93.8019 55.5837 92.2582C56.4734 91.3758 57.1566 90.3072 57.5841 89.1293C58.0117 87.9514 58.1728 86.6934 58.0562 85.4458Z" fill="black"/>
<path d="M42.6882 97.55C41.9054 97.3619 41.089 97.3651 40.308 97.5594C39.5268 97.7548 38.8041 98.1342 38.2009 98.6671C37.8801 102.512 43.3737 105.225 47.8463 103.085C47.1221 100.477 45.3153 98.1091 42.6882 97.55Z" fill="white"/>
<path d="M50.9457 97.6032C49.9372 92.7001 40.504 91.1984 38.4297 97.5196C38.7469 97.3085 39.0901 97.1392 39.4507 97.0149C42.9483 95.7786 47.0562 97.7464 48.5275 102.679C49.3666 102.145 50.0383 101.386 50.466 100.488C50.8936 99.5908 51.0599 98.5907 50.9457 97.6032Z" fill="white"/>
<path d="M29.0666 96.6043C28.3842 95.4034 27.4179 94.3881 26.2524 93.6469C25.4526 93.2173 24.5629 92.9818 23.6552 92.9594C22.7476 92.9372 21.8473 93.1286 21.0274 93.5184C20.0395 94.1264 19.2674 95.0291 18.8201 96.0993C18.3727 97.1696 18.2727 98.3536 18.534 99.4833C18.6448 99.9629 19.3826 99.7602 19.2729 99.2795C19.0526 98.34 19.1258 97.3546 19.4825 96.4582C19.8391 95.5613 20.4623 94.7953 21.2678 94.2635C21.9893 93.8807 22.7963 93.6875 23.6129 93.702C24.4296 93.7164 25.2291 93.9381 25.9368 94.3461C28.2358 95.5938 30.9769 101.54 33.7064 106.103C33.7576 106.191 33.8416 106.255 33.9397 106.28C33.9884 106.292 34.039 106.296 34.0889 106.289C34.1386 106.282 34.1866 106.265 34.2299 106.24C34.2733 106.215 34.3112 106.181 34.3415 106.141C34.3719 106.101 34.3941 106.055 34.4068 106.007C34.4195 105.958 34.4225 105.908 34.4156 105.858C34.4087 105.808 34.3922 105.761 34.3668 105.717C33.2654 103.71 30.3561 98.4947 29.0666 96.6043Z" fill="black"/>
<path d="M66.2745 103.835C64.7822 95.6252 56.3219 94.6815 53.9184 99.8083C53.1799 101.381 52.8315 103.108 52.9026 104.844C52.7846 104.781 53.0678 104.801 48.9316 104.801C48.6526 101.562 46.8207 98.2126 43.7756 97.0683C42.4363 96.4979 40.9291 96.4643 39.5657 96.9743C38.2024 97.4842 37.0873 98.4989 36.4512 99.8083C35.2364 102.497 35.0819 105.545 36.0186 108.343C36.5211 109.898 37.5126 111.249 38.8453 112.195C43.2343 115.323 49.0633 112.369 48.9713 105.566C53.0468 105.566 52.8065 105.597 52.9424 105.497C53.0124 106.464 53.1962 107.419 53.4899 108.343C54.5694 111.741 58.0879 114.129 61.5605 113.254C64.7561 112.442 67.1387 108.585 66.2745 103.835ZM46.0777 111.254C43.1664 114.082 38.49 112.326 36.9862 108.762C35.6612 105.627 35.8994 100.04 38.8516 98.1426C40.0086 97.4644 41.3802 97.2501 42.6888 97.5448C47.9452 98.6692 50.2233 107.233 46.0777 111.259V111.254ZM63.547 111.254C60.621 114.094 55.9185 112.313 54.4555 108.762C53.5137 106.293 53.4319 103.578 54.2235 101.056C54.5816 99.8794 55.3191 98.8553 56.3208 98.1426C57.4799 97.4696 58.8492 97.2564 60.1581 97.5448C65.4479 98.6943 67.6727 107.253 63.5512 111.259L63.547 111.254Z" fill="black"/>
<path d="M112.447 116.19L105.322 122.251C104.947 122.571 105.49 123.11 105.864 122.792L112.988 116.731C113.364 116.412 112.82 115.872 112.447 116.19Z" fill="#B999BE"/>
<path d="M104.882 121.61C107.32 119.665 109.712 117.666 112.056 115.613C112.427 115.288 111.884 114.748 111.515 115.071C109.169 117.124 106.777 119.123 104.341 121.069C103.955 121.376 104.501 121.915 104.882 121.61Z" fill="#B999BE"/>
<path d="M152.972 109.866C151.969 108.036 144.057 94.5499 143.671 93.8957C143.637 93.8391 143.588 93.7923 143.53 93.7599C143.473 93.7274 143.407 93.7103 143.341 93.7103C143.274 93.7103 143.209 93.7274 143.151 93.7599C143.093 93.7923 143.044 93.8391 143.01 93.8957C141.944 95.691 134.084 109.206 133.709 109.866C133.677 109.925 133.659 109.991 133.66 110.058C133.66 110.125 133.678 110.19 133.711 110.248C133.745 110.306 133.792 110.354 133.849 110.389C133.907 110.422 133.973 110.441 134.04 110.442H141.346V107.255C141.351 107.157 141.394 107.065 141.465 106.997C141.536 106.929 141.631 106.891 141.73 106.891C141.828 106.891 141.922 106.929 141.993 106.997C142.064 107.065 142.107 107.157 142.112 107.255V110.442H152.648C152.714 110.438 152.776 110.417 152.832 110.382C152.887 110.347 152.932 110.298 152.964 110.242C152.997 110.184 153.015 110.12 153.016 110.055C153.017 109.99 153.002 109.925 152.972 109.866Z" fill="#B999BE"/>
<path d="M133.868 80.4319H127.174C127.073 80.4331 126.977 80.4737 126.905 80.5452C126.834 80.6167 126.793 80.7134 126.792 80.8144V87.5129C126.793 87.6141 126.834 87.7111 126.905 87.7828C126.976 87.8545 127.073 87.8953 127.174 87.8964C131.738 87.9288 133.253 87.9392 133.786 87.9037C134.035 87.888 134.236 87.8598 134.264 87.4303C134.298 86.9172 134.284 85.4365 134.251 80.8196C134.251 80.7174 134.211 80.6193 134.139 80.5467C134.067 80.4741 133.97 80.4328 133.868 80.4319Z" fill="#B999BE"/>
<path d="M160.455 73.4785C158.907 72.9107 157.22 72.8353 155.626 73.2625C154.033 73.6898 152.611 74.5988 151.554 75.8654C150.497 77.132 149.857 78.6942 149.721 80.3383C149.586 81.9824 149.962 83.6283 150.798 85.0506C151.634 86.473 152.888 87.6024 154.39 88.2846C155.892 88.9666 157.568 89.168 159.189 88.8612C160.81 88.5543 162.297 87.7542 163.445 86.5704C164.595 85.3864 165.349 83.8764 165.607 82.2471C165.9 80.4148 165.546 78.5379 164.605 76.9381C163.666 75.3383 162.198 74.1152 160.455 73.4785Z" fill="#B999BE"/>
<path d="M130.546 56.284C130.514 56.3425 130.496 56.4085 130.497 56.4755C130.497 56.5424 130.515 56.6082 130.548 56.6663C130.582 56.7244 130.63 56.7729 130.687 56.8069C130.745 56.8411 130.811 56.8596 130.877 56.8609H139.797C139.849 56.8582 139.9 56.8453 139.947 56.8227C139.994 56.8002 140.036 56.7686 140.07 56.7297C140.105 56.6908 140.132 56.6455 140.149 56.5963C140.165 56.547 140.173 56.4949 140.17 56.4429C140.155 56.1482 135.748 48.7642 135.668 48.6283C135.633 48.5715 135.585 48.5245 135.527 48.4918C135.469 48.4592 135.403 48.442 135.338 48.442C135.271 48.442 135.205 48.4592 135.147 48.4918C135.089 48.5245 135.041 48.5715 135.006 48.6283C133.684 50.8542 130.729 55.9663 130.546 56.284Z" fill="#B999BE"/>
<path d="M148.81 23.4732C148.3 21.8516 147.287 20.4347 145.917 19.4281C144.548 18.4214 142.892 17.8775 141.192 17.8752H139.328C139.226 17.8765 139.13 17.9172 139.058 17.9887C138.987 18.06 138.946 18.1565 138.944 18.2577V25.0219C138.945 25.1234 138.986 25.2205 139.057 25.2922C139.129 25.364 139.226 25.4046 139.328 25.4055C139.635 25.398 139.94 25.4534 140.226 25.5682C140.51 25.6829 140.769 25.8546 140.985 26.0728C141.202 26.291 141.371 26.551 141.483 26.837C141.596 27.1229 141.648 27.4288 141.637 27.7358V31.7904C141.638 31.8915 141.679 31.9879 141.751 32.0594C141.822 32.1308 141.918 32.1715 142.02 32.1729H148.788C148.89 32.1718 148.987 32.1312 149.058 32.0597C149.13 31.9882 149.171 31.8916 149.172 31.7904C149.217 25.4995 149.257 24.9822 148.81 23.4732Z" fill="#B999BE"/>
<path d="M129.151 31.112C128.428 29.7922 122.708 20.0423 122.426 19.5689C122.392 19.512 122.344 19.465 122.285 19.4324C122.228 19.3996 122.162 19.3825 122.096 19.3825C122.029 19.3825 121.963 19.3996 121.906 19.4324C121.848 19.465 121.799 19.512 121.765 19.5689C120.997 20.8616 115.314 30.6344 115.04 31.112C115.008 31.1703 114.99 31.2362 114.991 31.303C114.991 31.3699 115.009 31.4355 115.042 31.4935C115.076 31.5515 115.123 31.5999 115.18 31.634C115.238 31.6681 115.304 31.6865 115.371 31.6878H128.821C128.887 31.684 128.95 31.664 129.007 31.6293C129.062 31.5947 129.109 31.5465 129.142 31.4894C129.175 31.4322 129.193 31.3677 129.195 31.3018C129.196 31.2359 129.181 31.1706 129.151 31.112Z" fill="#B999BE"/>
<path d="M141.34 126.08C141.345 126.178 141.388 126.27 141.459 126.338C141.53 126.406 141.625 126.443 141.723 126.443C141.822 126.443 141.916 126.406 141.987 126.338C142.058 126.27 142.101 126.178 142.106 126.08V107.255C142.101 107.157 142.058 107.065 141.987 106.997C141.916 106.929 141.822 106.891 141.723 106.891C141.625 106.891 141.53 106.929 141.459 106.997C141.388 107.065 141.345 107.157 141.34 107.255V126.08Z" fill="black"/>
<path d="M136.634 72.052V88.6174C136.634 88.7188 136.673 88.8161 136.746 88.8878C136.818 88.9596 136.915 88.9998 137.016 88.9998C137.118 88.9998 137.215 88.9596 137.287 88.8878C137.358 88.8161 137.399 88.7188 137.399 88.6174V72.052C137.399 71.9506 137.358 71.8534 137.287 71.7816C137.215 71.7099 137.118 71.6696 137.016 71.6696C136.915 71.6696 136.818 71.7099 136.746 71.7816C136.673 71.8534 136.634 71.9506 136.634 72.052Z" fill="black"/>
<path d="M142.658 47.9555V71.677C142.663 71.7752 142.706 71.8675 142.777 71.9351C142.848 72.0028 142.943 72.0405 143.042 72.0405C143.14 72.0405 143.234 72.0028 143.305 71.9351C143.376 71.8675 143.419 71.7752 143.424 71.677V47.9555C143.419 47.8574 143.376 47.765 143.305 47.6973C143.234 47.6297 143.14 47.592 143.042 47.592C142.943 47.592 142.848 47.6297 142.777 47.6973C142.706 47.765 142.663 47.8574 142.658 47.9555Z" fill="black"/>
<path d="M146.798 42.1202V60.1924C146.803 60.2906 146.846 60.3829 146.917 60.4506C146.988 60.5183 147.082 60.5559 147.18 60.5559C147.279 60.5559 147.374 60.5183 147.445 60.4506C147.516 60.3829 147.559 60.2906 147.564 60.1924V42.1202C147.559 42.0221 147.516 41.9297 147.445 41.862C147.374 41.7944 147.279 41.7567 147.18 41.7567C147.082 41.7567 146.988 41.7944 146.917 41.862C146.846 41.9297 146.803 42.0221 146.798 42.1202Z" fill="black"/>
<path d="M91.7945 143.447C91.3368 143.618 91.5354 144.359 91.9983 144.184C97.2133 142.227 102.644 140.9 108.174 140.233C108.658 140.175 108.663 139.409 108.174 139.467C102.574 140.131 97.0747 141.467 91.7945 143.447Z" fill="black"/>
<path d="M107.269 136.105C101.602 137.016 96.0566 138.565 90.7382 140.723C90.2868 140.906 90.4843 141.647 90.9472 141.462C96.2656 139.304 101.811 137.754 107.478 136.844C107.958 136.768 107.755 136.03 107.269 136.105Z" fill="black"/>
<path d="M4.31854 21.3861C6.12218 23.9986 10.484 30.3292 10.484 30.3292C10.762 30.7326 11.4245 30.3491 11.1445 29.9426L4.97898 20.9995C4.70205 20.5961 4.03848 20.9786 4.31854 21.3861Z" fill="black"/>
<path d="M15.5 29.6251C15.6045 30.1069 16.3454 29.9031 16.2378 29.4224C15.9086 27.9364 13.3118 16.2219 13.3118 16.2219C13.2073 15.7402 12.4664 15.944 12.573 16.4309C13.0787 18.7362 14.8814 26.8454 15.5 29.6251Z" fill="black"/>
<path d="M166.275 157.379H147.299C147.666 155.879 146.82 154.37 145.769 153.108C142.457 149.296 138.479 146.12 134.03 143.733C128.08 135.246 115.136 118.215 114.541 117.449C114.495 117.384 114.426 117.339 114.348 117.325C114.271 117.31 114.189 117.326 114.123 117.369C113.904 117.52 106.781 123.41 106.662 123.509C106.592 123.582 106.553 123.679 106.553 123.78C106.553 123.88 106.592 123.977 106.662 124.05C111.548 129.328 110.92 129.049 122.86 141.575C111.165 142.043 91.079 147.888 76.1146 150.971C75.2386 146.972 73.9672 143.069 72.3192 139.322C70.7516 135.62 68.6121 132.19 65.9791 129.153C56.9859 119.068 42.3695 117.229 29.5536 121.354C31.8184 117.252 34.0586 113.136 36.274 109.006C37.8321 112.697 42.126 114.545 45.4073 112.716C47.9466 111.294 49.0125 108.368 48.9749 105.567C53.0504 105.567 52.8101 105.597 52.9459 105.497C53.0155 106.464 53.1993 107.419 53.4935 108.343C53.9792 110.023 55.078 111.46 56.5724 112.37C58.0668 113.279 59.8481 113.595 61.564 113.254C65.3971 112.216 67.0074 107.82 66.2822 103.839C64.7962 95.6607 56.3328 94.6627 53.9261 99.8114C53.1875 101.384 52.8391 103.111 52.9104 104.847C52.7933 104.786 53.0755 104.804 48.9394 104.804C48.8826 104.084 48.7477 103.373 48.5371 102.682C51.0273 101.034 51.9584 97.6211 49.7911 95.436C53.1351 94.4631 55.968 92.812 57.3955 89.6059C57.3955 89.6059 77.1648 89.6122 79.027 89.6059C81.6079 89.6034 84.1556 89.0237 86.4834 87.9091C88.8111 86.7947 90.8602 85.1734 92.4803 83.1645L115.111 57.0803H116.818C116.917 57.0752 117.009 57.0325 117.077 56.9613C117.144 56.89 117.182 56.7955 117.182 56.6973C117.182 56.5991 117.144 56.5045 117.077 56.4332C117.009 56.3619 116.917 56.3194 116.818 56.3143H115.773C118.426 53.2577 118.281 53.4771 118.347 53.1793C118.365 52.8552 118.365 52.5305 118.347 52.2064C118.347 49.9732 118.363 48.9303 118.347 48.4193C118.327 47.7223 118.193 47.7923 117.794 47.7819C115.964 47.7317 106.541 47.762 59.2473 47.762C60.1658 46.9584 61.169 46.1454 62.0771 45.4264H118.247C118.348 45.4248 118.444 45.3838 118.515 45.3122C118.588 45.2406 118.628 45.144 118.629 45.0429V31.6878H128.83C128.882 31.6851 128.933 31.6722 128.98 31.6497C129.027 31.6272 129.069 31.5956 129.103 31.5568C129.139 31.5179 129.165 31.4726 129.183 31.4232C129.2 31.374 129.207 31.3219 129.204 31.2698C129.195 31.1277 129.637 31.9344 122.435 19.5658C122.401 19.5089 122.353 19.4619 122.294 19.4292C122.237 19.3965 122.171 19.3794 122.105 19.3794C122.038 19.3794 121.972 19.3965 121.915 19.4292C121.856 19.4619 121.808 19.5089 121.774 19.5658C121.017 20.8658 118.629 24.9633 118.629 24.9633V16.62C119.048 16.5004 119.427 16.2668 119.721 15.9449C121.323 13.9281 119.78 11.3396 121.355 9.86091C121.498 9.74314 121.663 9.65484 121.841 9.60102C122.018 9.54731 122.204 9.52913 122.388 9.54752C122.573 9.56601 122.752 9.62077 122.916 9.70855C123.079 9.79643 123.223 9.91567 123.34 10.0595C123.729 10.5151 123.945 11.0928 123.953 11.6918C124.124 13.2454 124.126 14.813 123.959 16.3671C123.907 16.8572 124.673 16.853 124.725 16.3671C124.934 14.4159 124.86 12.4447 124.502 10.5151C124.407 10.1769 124.237 9.86446 124.005 9.60039C123.773 9.33642 123.486 9.12743 123.163 8.98886C122.84 8.85019 122.49 8.7855 122.138 8.7993C121.787 8.81309 121.445 8.90515 121.133 9.0688C120.597 9.45608 120.21 10.0152 120.037 10.653C119.483 12.6699 120.13 13.2854 119.436 15.0159C119.262 15.3564 118.979 15.6296 118.634 15.7934V13.5508C118.728 11.8653 118.521 10.1766 118.021 8.56407C117.413 6.75235 116.362 5.12173 114.962 3.82081C113.562 2.51989 111.859 1.5901 110.008 1.11632C108.784 0.865217 107.538 0.740904 106.288 0.745345C100.92 0.62935 40.7832 0.605315 38.828 0.795505C35.9641 1.06184 33.3026 2.38658 31.3635 4.51082C29.4244 6.635 28.3472 9.40602 28.3424 12.2822V34.9806C26.4583 35.861 24.766 37.1039 23.362 38.6381C21.6377 35.5334 17.7597 34.3881 14.3812 34.8625C10.0622 35.4697 6.89693 38.8607 4.96682 42.5663C2.76841 47.2555 1.40683 52.293 0.94357 57.4513C0.572595 61.7452 0.234014 181.563 0.224609 184.814C0.225957 184.915 0.266692 185.011 0.338128 185.082C0.409564 185.154 0.506059 185.195 0.60708 185.196H77.2411C77.3423 185.195 77.4388 185.154 77.5104 185.082C77.5821 185.011 77.623 184.915 77.6246 184.814C77.6246 184.648 77.6246 184.483 77.6246 184.316C83.6328 184.664 89.6604 184.431 95.6237 183.62C95.6237 184.038 95.6436 184.497 95.6436 184.497C95.6451 184.598 95.6861 184.695 95.7577 184.767C95.8293 184.838 95.9258 184.879 96.0271 184.881H166.275C166.376 184.879 166.473 184.838 166.544 184.766C166.615 184.695 166.656 184.598 166.658 184.497V157.763C166.656 157.662 166.615 157.565 166.544 157.494C166.473 157.422 166.376 157.381 166.275 157.379ZM54.2229 101.061C54.575 99.8824 55.3138 98.8563 56.3202 98.1478C57.4774 97.4695 58.8488 97.2564 60.1575 97.55C65.3919 98.6368 67.7076 107.233 63.5474 111.259C60.6862 114.05 55.9764 112.371 54.4559 108.767C53.5032 106.3 53.4211 103.582 54.2229 101.061ZM107.477 123.821L114.209 118.264C121.565 128.333 126.887 135.08 132.662 143.135C129.878 142.001 126.888 141.462 123.884 141.554C118.467 135.881 112.737 129.777 107.477 123.821ZM106.931 145.886C106.931 145.502 106.963 145.094 106.946 144.704C110.115 144.056 113.298 143.473 116.498 143.004C119.694 142.413 122.95 142.202 126.197 142.377C133.454 142.833 139.515 147.565 144.532 152.868C145.562 153.96 146.66 155.258 146.622 156.839C146.592 157.995 145.333 159.322 144.105 158.97C143.758 158.871 143.427 159.36 143.733 159.609C144.843 160.516 144.575 162.399 143.697 163.371C142.416 164.797 140.131 164.765 138.381 164.685C138.29 164.688 138.203 164.724 138.136 164.784C138.068 164.845 138.026 164.927 138.013 165.017C138.001 165.107 138.019 165.198 138.068 165.275C138.117 165.352 138.19 165.409 138.276 165.437C138.674 165.599 139.012 165.878 139.247 166.237C139.482 166.596 139.603 167.018 139.592 167.447C139.574 167.936 139.438 168.413 139.196 168.838C138.953 169.262 138.61 169.621 138.197 169.883C137.253 170.503 136.241 171.01 135.18 171.395C129.145 173.666 119.949 177.653 106.931 180.743V145.886ZM145.186 160.895C145.484 161.324 148.339 165.448 148.606 165.846C148.758 166.072 148.86 166.315 148.606 166.518C148.369 166.707 148.158 166.579 147.979 166.395C147.635 166.046 144.783 163.099 144.783 163.099C145.141 162.424 145.282 161.653 145.186 160.895ZM38.201 98.6661C38.1602 99.2189 38.2338 99.7748 38.417 100.298C38.6001 100.822 38.8891 101.302 39.2658 101.709C38.3386 103.484 37.4026 105.254 36.4579 107.019C35.902 104.251 36.1956 100.7 38.201 98.6661ZM39.062 98.0307C42.0675 96.4716 45.9862 97.9053 47.608 102.346C43.6454 104.32 38.0432 101.94 39.062 98.0307ZM46.0782 111.259C43.2274 114.035 38.1853 112.492 36.7474 108.101C37.7847 106.158 38.8141 104.21 39.8353 102.258C40.9626 103.125 42.309 103.662 43.7239 103.809C45.1388 103.955 46.5666 103.704 47.8474 103.085C48.6227 105.879 48.2434 109.163 46.0782 111.259ZM50.0053 97.1142C50.2708 97.9973 50.2457 98.9419 49.9338 99.8093C49.6219 100.676 49.0395 101.421 48.2727 101.932C46.5787 97.4789 42.7446 95.8791 39.4497 97.0202C39.9956 95.978 40.8615 95.1385 41.9201 94.6251C44.8221 93.4097 48.7596 94.4265 50.0053 97.1142ZM55.5626 91.1442C53.8669 93.0457 51.5967 94.3416 49.0972 94.8351C45.8932 92.4755 41.3318 92.905 39.224 95.9188C39.004 95.4766 38.9256 94.9774 38.9993 94.4892C39.4769 91.0888 42.4269 88.7292 45.6393 87.4814C48.1949 86.4947 50.9587 86.1712 53.6732 86.5409C54.915 86.6652 56.1687 86.4969 57.3339 86.0498C57.3862 87.9074 56.7561 89.7197 55.5626 91.1442ZM117.578 53.0612C116.4 54.4197 93.5149 80.7966 91.7583 82.8207C90.2047 84.7054 88.2528 86.2224 86.043 87.2628C83.8332 88.3032 81.4204 88.8411 78.9779 88.8378C77.1544 88.8378 57.7289 88.8378 57.6933 88.8378C58.0708 87.7495 58.1969 86.5897 58.0622 85.4458C58.061 85.3948 58.0498 85.3446 58.0291 85.2981C58.0085 85.2515 57.9789 85.2095 57.9421 85.1743C57.9052 85.1392 57.8617 85.1117 57.8143 85.0933C57.7667 85.075 57.716 85.0662 57.6651 85.0675C56.44 85.706 55.049 85.9547 53.6785 85.7802C51.7801 85.5728 49.8614 85.6485 47.9853 86.0048C48.2152 85.5189 48.4399 85.0309 48.6666 84.5418H78.4826C81.0339 84.6174 83.5704 84.1265 85.9093 83.1042C88.2482 82.082 90.3314 80.554 92.0091 78.6303C93.2505 77.2091 115.988 50.9932 117.573 49.1665L117.578 53.0612ZM117.095 48.5594L91.753 77.7619C90.1994 79.6464 88.2475 81.1633 86.0377 82.2036C83.8279 83.2437 81.4151 83.7814 78.9727 83.7779C77.1471 83.7779 49.0178 83.7779 49.0178 83.7779C50.0523 81.5364 51.0513 79.2771 51.9835 76.9907C56.7153 77.2643 61.4616 77.1486 66.1746 76.6448C67.9745 76.5023 69.7511 76.1474 71.4675 75.5872H92.6914C92.7896 75.5821 92.882 75.5395 92.9496 75.4682C93.0173 75.3969 93.0549 75.3025 93.0549 75.2042C93.0549 75.106 93.0173 75.0114 92.9496 74.9402C92.882 74.8689 92.7896 74.8264 92.6914 74.8213H73.1144C76.3968 72.9517 77.5703 68.4112 74.451 66.1739H82.0544C82.1456 66.1595 82.2288 66.1131 82.2889 66.0428C82.3489 65.9726 82.3819 65.8833 82.3819 65.7909C82.3819 65.6985 82.3489 65.6092 82.2889 65.5389C82.2288 65.4687 82.1456 65.4222 82.0544 65.4079H73.0747C69.2699 63.9324 61.0927 63.5917 57.2795 62.6031C55.037 62.0608 53.4068 60.0951 53.5802 57.0792H70.1142C70.2123 57.0741 70.3047 57.0315 70.3723 56.9602C70.44 56.8889 70.4778 56.7945 70.4778 56.6962C70.4778 56.598 70.44 56.5034 70.3723 56.4322C70.3047 56.3609 70.2123 56.3184 70.1142 56.3133H53.6607C54.1424 53.1866 56.0778 50.688 58.3893 48.5291C58.3893 48.527 116.175 48.5813 117.09 48.5594H117.095ZM122.097 20.5283L128.158 30.9271H116.036C116.142 30.7431 121.991 20.7028 122.097 20.5283ZM29.1084 12.2822C29.1122 10.8346 29.4068 9.40268 29.9745 8.07124C30.5423 6.73981 31.3718 5.53597 32.4136 4.5312C33.4556 3.52633 34.6887 2.74112 36.0399 2.22202C37.3911 1.70292 38.8328 1.46053 40.2795 1.50924H106.979C109.837 1.48167 112.588 2.59043 114.628 4.5915C116.668 6.59257 117.83 9.32222 117.857 12.1798C117.857 12.2163 117.857 13.2404 117.857 15.9731C117.83 15.9731 117.805 15.9825 117.777 15.9815C117.433 15.9667 117.102 15.8526 116.822 15.653C116.541 15.4534 116.325 15.1769 116.2 14.8571C115.539 13.2321 116.334 11.3887 115.564 9.7794C115.412 9.43831 115.188 9.13401 114.907 8.88739C114.627 8.64067 114.296 8.45737 113.938 8.34984C113.56 8.27283 113.167 8.30104 112.804 8.43146C112.439 8.56187 112.118 8.78958 111.875 9.0897C110.359 10.9216 111.554 13.6093 110.701 15.1873C110.493 15.37 110.247 15.5043 109.981 15.5805C109.714 15.6567 109.434 15.6727 109.162 15.6275C108.888 15.5823 108.629 15.477 108.401 15.3192C108.174 15.1614 107.984 14.955 107.846 14.7149C107.444 13.9457 107.267 13.0784 107.337 12.2132C107.363 11.186 107.449 10.1612 107.594 9.14404C107.655 8.65603 106.889 8.66125 106.828 9.14404C106.5 10.8445 106.496 12.5916 106.815 14.2938C107.031 15.0304 107.506 15.6636 108.154 16.0755C108.787 16.4103 109.519 16.5064 110.216 16.3462C111.993 15.9679 111.815 13.7535 111.793 12.3637C111.723 11.567 111.85 10.7653 112.163 10.0292C112.294 9.67762 112.557 9.39139 112.897 9.23161C113.236 9.07183 113.625 9.05135 113.979 9.17435C115.681 9.96228 115.076 12.3898 115.19 13.8465C115.315 15.4391 116.26 16.7725 117.859 16.7496V26.281C117.199 27.4148 115.322 30.6355 115.045 31.112C115.013 31.1703 114.995 31.2362 114.996 31.3031C114.996 31.3699 115.014 31.4356 115.047 31.4936C115.081 31.5516 115.128 31.5999 115.185 31.634C115.243 31.6681 115.308 31.6866 115.375 31.6878H117.859V44.6594H63.0343C65.2646 43.0385 67.2838 41.1457 69.0452 39.0248C70.3946 37.506 71.2533 35.6147 71.5082 33.5991C71.5972 32.7311 71.4685 31.8546 71.1339 31.0488C70.7993 30.2429 70.2693 29.533 69.5917 28.9834C67.8612 27.604 65.673 28.209 63.8568 29.1077C56.9721 32.7302 50.3872 36.8959 44.1648 41.5652C43.7949 40.0496 43.0789 38.6403 42.0731 37.4478C41.0672 36.2553 39.7987 35.3121 38.3671 34.6922C36.9052 34.063 35.3313 33.7352 33.7397 33.7283C32.1481 33.7215 30.5715 34.0358 29.1042 34.6525L29.1084 12.2822ZM1.48592 60.6343C1.73463 52.2628 4.70139 38.7823 12.7113 36.0455C16.489 34.7559 21.2563 35.7529 22.945 39.494C22.9749 39.5441 23.0159 39.587 23.0648 39.619C23.1137 39.651 23.1692 39.6716 23.2271 39.679C23.2851 39.6866 23.3441 39.6807 23.3995 39.662C23.4549 39.6433 23.5053 39.6123 23.5469 39.5713C28.6392 33.7057 36.5415 32.6545 41.3119 37.7311C42.5083 39.0015 43.2829 40.6108 43.5294 42.3385C43.5572 42.4364 43.6225 42.5193 43.7112 42.5692C43.7999 42.6192 43.9047 42.6319 44.0028 42.6049C50.2602 37.9132 56.8651 33.7039 63.7606 30.0137C64.7088 29.4434 65.7642 29.0738 66.8611 28.928C67.7406 28.9012 68.6009 29.188 69.2885 29.7369C69.9761 30.286 70.4461 31.0615 70.6148 31.925C70.782 32.9032 70.7432 33.9054 70.501 34.8678C70.2588 35.83 69.8185 36.7312 69.2082 37.5137C65.371 43.2727 58.033 46.1036 54.3577 52.2283C52.7996 54.8252 51.9761 58.653 53.9272 61.2822C55.1197 62.6671 56.8084 63.5283 58.6297 63.6805C69.2019 65.4758 74.1897 65.0724 75.334 68.546C75.54 69.3586 75.5288 70.2112 75.3016 71.0182C75.0743 71.8251 74.639 72.5582 74.0392 73.144C72.6116 74.4557 70.8065 75.2836 68.8811 75.5099C63.2089 76.3446 57.4646 76.5799 51.7431 76.2122C51.1809 76.2226 51.7431 76.3459 47.0323 86.2295C45.4329 86.6487 43.9126 87.326 42.5314 88.2349C42.5314 88.2349 1.86735 88.192 1.3856 88.214C1.42009 78.0796 1.45144 61.5205 1.48592 60.6343ZM76.3372 183.452C66.6565 182.774 57.2297 180.051 48.6781 175.463C35.4725 168.326 19.8915 156.131 13.0938 151.457C12.6862 151.177 12.3027 151.841 12.7071 152.118C19.7807 156.971 23.9398 160.472 34.4734 167.609C48.5444 177.135 59.5451 183.013 76.8628 184.26V184.43C76.8628 184.43 1.25184 184.417 0.995819 184.422C0.995819 180.027 1.37724 89.6697 1.38038 89.0009H41.4948C40.489 89.7962 39.6532 90.7856 39.037 91.9101C38.2929 93.3596 37.7108 95.4266 38.7976 96.6304C38.6526 96.9167 38.5296 97.2146 38.4298 97.5197C37.5756 98.0913 36.8901 98.8824 36.4443 99.8083C35.28 102.391 35.0943 105.31 35.9218 108.021C34.7232 110.262 29.7229 119.452 28.4208 121.806C28.3849 121.871 28.3688 121.947 28.3746 122.022C28.3806 122.096 28.4081 122.168 28.4539 122.228C28.4997 122.287 28.5619 122.332 28.6328 122.357C28.7038 122.382 28.7804 122.385 28.8534 122.368C46.1409 116.685 63.2224 121.292 71.039 138.378C72.9557 142.447 74.4053 146.72 75.3601 151.116C69.3482 152.327 63.817 153.321 57.7634 152.056C48.1316 149.932 32.9122 142.141 21.1884 137.733C20.7265 137.56 20.5269 138.3 20.9794 138.472C35.9291 144.077 51.8591 152.998 62.3248 153.39C71.9472 153.751 89.4384 148.374 106.103 144.879V179.744C106.103 180.1 106.036 180.559 106.072 180.946C96.3449 183.286 86.3184 184.131 76.3372 183.452ZM165.886 184.115H96.4127V183.515C108.504 181.824 120.512 178 131.864 173.537C133.223 173.008 134.562 172.44 135.923 171.921C137.01 171.519 138.031 170.959 138.954 170.259C139.319 169.996 139.629 169.661 139.862 169.276C140.095 168.89 140.247 168.461 140.311 168.014C140.374 167.568 140.347 167.114 140.23 166.679C140.113 166.243 139.909 165.836 139.631 165.481C140.966 165.535 142.29 165.215 143.453 164.557C143.792 164.34 144.093 164.069 144.345 163.756C145.362 164.801 146.378 165.846 147.396 166.891C147.548 167.088 147.758 167.234 147.996 167.306C148.233 167.379 148.488 167.375 148.724 167.295C148.961 167.216 149.165 167.064 149.311 166.863C149.457 166.66 149.535 166.418 149.536 166.169C149.476 165.774 149.3 165.405 149.031 165.11C147.858 163.405 145.345 159.781 145.269 159.663C146.009 159.377 146.624 158.838 147.003 158.141H165.89L165.886 184.115Z" fill="black"/>
<path d="M63.9348 25.6391C64.2692 26.0038 64.8095 25.4604 64.4761 25.0978C64.4761 25.0978 59.3629 19.5332 59.2135 19.3723L64.6611 12.7888C64.9746 12.4115 64.4343 11.8671 64.1198 12.2474L58.436 19.111C58.3674 19.1844 58.3291 19.2811 58.3291 19.3817C58.3291 19.4822 58.3674 19.579 58.436 19.6523C65.7876 27.5473 63.4875 25.1532 63.9348 25.6391Z" fill="black"/>
<path d="M89.0414 19.3724L83.7798 25.098C83.4465 25.4606 83.9888 26.004 84.3211 25.6393L89.8199 19.6567C89.8888 19.5834 89.9273 19.4866 89.9273 19.386C89.9273 19.2855 89.8888 19.1887 89.8199 19.1153L84.1383 12.2518C83.8248 11.8714 83.2845 12.4158 83.597 12.7931L89.0414 19.3724Z" fill="black"/>
<path d="M94.3938 57.077H109.285C109.383 57.0718 109.475 57.0292 109.543 56.9579C109.611 56.8867 109.649 56.7922 109.649 56.694C109.649 56.5957 109.611 56.5012 109.543 56.4299C109.475 56.3587 109.383 56.3161 109.285 56.311H94.3938C94.2957 56.3161 94.2032 56.3587 94.1356 56.4299C94.068 56.5012 94.0303 56.5957 94.0303 56.694C94.0303 56.7922 94.068 56.8867 94.1356 56.9579C94.2032 57.0292 94.2957 57.0718 94.3938 57.077Z" fill="black"/>
<path d="M74.9807 57.077H89.548C89.6461 57.0718 89.7385 57.0292 89.8062 56.9579C89.8738 56.8867 89.9115 56.7922 89.9115 56.694C89.9115 56.5957 89.8738 56.5012 89.8062 56.4299C89.7385 56.3587 89.6461 56.3161 89.548 56.311H74.9807C74.8826 56.3161 74.7901 56.3587 74.7225 56.4299C74.6549 56.5012 74.6172 56.5957 74.6172 56.694C74.6172 56.7922 74.6549 56.8867 74.7225 56.9579C74.7901 57.0292 74.8826 57.0718 74.9807 57.077Z" fill="black"/>
<path d="M74.9801 90.7939C74.8787 90.7939 74.7814 90.8342 74.7097 90.906C74.638 90.9777 74.5977 91.0749 74.5977 91.1764C74.5977 91.2778 74.638 91.3751 74.7097 91.4469C74.7814 91.5186 74.8787 91.5589 74.9801 91.5589H84.5555C84.6569 91.5589 84.7542 91.5186 84.8259 91.4469C84.8976 91.3751 84.9379 91.2778 84.9379 91.1764C84.9379 91.0749 84.8976 90.9777 84.8259 90.906C84.7542 90.8342 84.6569 90.7939 84.5555 90.7939H74.9801Z" fill="black"/>
<path d="M101.148 65.4058H86.7072C86.6091 65.4109 86.5167 65.4535 86.4491 65.5247C86.3814 65.596 86.3438 65.6905 86.3438 65.7888C86.3438 65.887 86.3814 65.9814 86.4491 66.0527C86.5167 66.124 86.6091 66.1666 86.7072 66.1717H101.148C101.246 66.1666 101.338 66.124 101.406 66.0527C101.474 65.9814 101.512 65.887 101.512 65.7888C101.512 65.6905 101.474 65.596 101.406 65.5247C101.338 65.4535 101.246 65.4109 101.148 65.4058Z" fill="black"/>
<path d="M16.7112 49.0157C17.9325 46.2558 19.6166 43.7249 21.6907 41.5325C22.0303 41.1751 21.49 40.6327 21.1494 40.9912C19.0206 43.2238 17.2951 45.8088 16.0498 48.6312C15.8533 49.0763 16.5137 49.4672 16.7112 49.0157Z" fill="black"/>
<path d="M35.9843 52.7518C37.3606 49.427 39.5016 46.4738 42.2334 44.1316C42.6085 43.8118 42.0641 43.2726 41.691 43.5903C38.8568 46.0167 36.6478 49.0894 35.2507 52.5491C35.0605 53.0047 35.8014 53.2033 35.9843 52.7518Z" fill="black"/>
<path d="M21.2749 94.2603C21.9965 93.8778 22.8034 93.6848 23.62 93.6992C24.4366 93.7137 25.2362 93.9351 25.9439 94.3428C26.9725 95.0185 27.8231 95.9323 28.4237 97.0066C30.056 99.4184 32.9026 104.74 33.7135 106.098C33.7399 106.141 33.7746 106.179 33.8156 106.208C33.8567 106.237 33.9031 106.258 33.9522 106.268C34.0013 106.28 34.0522 106.281 34.1018 106.273C34.1513 106.264 34.1988 106.245 34.2412 106.218C34.3237 106.167 34.3833 106.086 34.408 105.991C34.4327 105.897 34.4204 105.797 34.3739 105.711C30.5712 98.9837 28.454 94.7849 26.2564 93.6406C25.4576 93.2078 24.5675 92.9705 23.6593 92.9481C22.751 92.9257 21.8504 93.119 21.0314 93.5121C20.0436 94.1202 19.2718 95.0229 18.8246 96.0931C18.3775 97.1633 18.2776 98.3473 18.539 99.4769C18.5526 99.525 18.5755 99.5689 18.6062 99.6076C18.6371 99.6462 18.6752 99.6786 18.7185 99.7027C18.7618 99.7267 18.8094 99.7424 18.8586 99.7476C18.9077 99.7528 18.9576 99.7486 19.0051 99.7351C19.1 99.7058 19.1805 99.642 19.2309 99.5574C19.2814 99.4717 19.2981 99.3703 19.2779 99.2732C19.0601 98.3337 19.1346 97.3504 19.4916 96.4541C19.8484 95.5582 20.4707 94.7927 21.2749 94.2603Z" fill="black"/>
<path d="M128.759 152.135L141.525 158.606C141.964 158.829 142.352 158.168 141.912 157.946L129.146 151.474C128.708 151.251 128.321 151.912 128.759 152.135Z" fill="black"/>
<path d="M136.256 165.156C136.283 165.058 136.269 164.953 136.219 164.866C136.169 164.777 136.086 164.712 135.988 164.685C132.392 164.171 128.782 163.787 125.157 163.535C124.665 163.501 124.668 164.267 125.157 164.301C128.71 164.549 132.252 164.925 135.784 165.428C135.883 165.452 135.987 165.437 136.075 165.386C136.163 165.336 136.227 165.253 136.256 165.156Z" fill="black"/>
<path d="M112.446 116.191L105.322 122.252C104.946 122.571 105.49 123.111 105.864 122.793L112.987 116.732C113.364 116.412 112.819 115.872 112.446 116.191Z" fill="black"/>
<path d="M104.881 121.61C107.319 119.665 109.711 117.666 112.055 115.613C112.426 115.288 111.883 114.747 111.513 115.071C109.168 117.125 106.777 119.124 104.34 121.069C103.954 121.376 104.499 121.915 104.881 121.61Z" fill="black"/>
<path d="M87.1306 180.1H81.8596C81.7615 180.105 81.6691 180.148 81.6014 180.219C81.5338 180.29 81.4961 180.384 81.4961 180.483C81.4961 180.581 81.5338 180.675 81.6014 180.747C81.6691 180.818 81.7615 180.86 81.8596 180.866H87.1306C87.2288 180.86 87.3211 180.818 87.3887 180.747C87.4565 180.675 87.4941 180.581 87.4941 180.483C87.4941 180.384 87.4565 180.29 87.3887 180.219C87.3211 180.148 87.2288 180.105 87.1306 180.1Z" fill="black"/>
<path d="M4.09845 92.766C4.00141 92.7693 3.90927 92.8093 3.84061 92.878C3.77196 92.9466 3.73189 93.0388 3.72852 93.1359V99.3484C3.73364 99.4466 3.77623 99.5386 3.84749 99.6065C3.91875 99.6745 4.01326 99.7121 4.11151 99.7121C4.20976 99.7121 4.30426 99.6745 4.37552 99.6065C4.44679 99.5386 4.48937 99.4466 4.4945 99.3484V93.1359C4.49096 93.0343 4.44726 92.9383 4.373 92.869C4.29874 92.7996 4.2 92.7625 4.09845 92.766Z" fill="black"/>
<path d="M179.996 145.15C178.539 145.647 177.274 146.59 176.383 147.845C175.491 149.1 175.015 150.604 175.024 152.143C175.024 152.832 175.024 184.408 175.024 184.443C175.029 184.541 175.072 184.633 175.143 184.701C175.214 184.769 175.309 184.806 175.407 184.806C175.505 184.806 175.599 184.769 175.67 184.701C175.741 184.633 175.784 184.541 175.79 184.443C175.79 184.443 175.79 152.281 175.79 152.111C175.836 150.4 176.545 148.774 177.769 147.578C178.992 146.382 180.633 145.709 182.345 145.703C184.055 145.695 185.702 146.356 186.936 147.542C188.169 148.728 188.891 150.348 188.95 152.058C188.95 152.413 188.944 152.767 188.95 153.121C188.955 153.219 188.998 153.311 189.069 153.379C189.14 153.447 189.236 153.485 189.334 153.485C189.432 153.485 189.526 153.447 189.597 153.379C189.668 153.311 189.711 153.219 189.716 153.121C189.79 151.975 189.657 150.825 189.322 149.727C189.017 148.809 188.532 147.962 187.896 147.233C187.259 146.506 186.485 145.912 185.618 145.485C184.749 145.06 183.806 144.81 182.84 144.753C181.876 144.695 180.908 144.83 179.996 145.15Z" fill="black"/>
<path d="M188.457 143.734C186.873 142.719 185.062 142.113 183.186 141.968C181.31 141.823 179.428 142.145 177.707 142.905C176.011 143.709 174.578 144.978 173.576 146.566C172.575 148.154 172.047 149.994 172.052 151.871C172.046 153.001 172.052 183.833 172.052 183.833C172.095 187.395 169.745 191.339 164.367 191.491C159.808 191.62 145.86 191.402 95.8097 191.491C95.7593 191.492 95.7096 191.504 95.6636 191.525C95.6175 191.544 95.576 191.575 95.5416 191.611C95.5071 191.648 95.4804 191.692 95.4629 191.739C95.4455 191.787 95.4376 191.837 95.4398 191.887C95.4435 191.984 95.4836 192.076 95.5522 192.144C95.6208 192.213 95.7128 192.253 95.8097 192.257H164.333C165.419 192.285 166.499 192.1 167.512 191.712C168.526 191.323 169.454 190.738 170.241 189.991C171.029 189.243 171.661 188.349 172.103 187.357C172.545 186.365 172.786 185.296 172.815 184.211C172.815 184.139 172.815 153.755 172.815 153.755C172.72 152.231 172.849 150.701 173.201 149.215C176.241 139.453 192.611 140.614 191.921 153.117C191.921 153.218 191.962 153.315 192.033 153.387C192.105 153.458 192.203 153.499 192.304 153.499C192.405 153.499 192.502 153.458 192.575 153.387C192.647 153.315 192.686 153.218 192.686 153.117C192.881 151.317 192.592 149.5 191.848 147.85C191.105 146.2 189.934 144.779 188.457 143.734Z" fill="black"/>
<path d="M170.977 145.288C169.57 147.593 168.852 150.254 168.91 152.955C168.91 152.955 168.902 183.146 168.91 183.667C168.925 184.248 168.812 184.826 168.58 185.359C168.348 185.892 168.002 186.368 167.567 186.753C166.578 187.47 165.354 187.786 164.142 187.637H95.9191C95.821 187.642 95.7286 187.685 95.661 187.756C95.5934 187.827 95.5557 187.921 95.5557 188.021C95.5557 188.119 95.5934 188.213 95.661 188.284C95.7286 188.355 95.821 188.398 95.9191 188.403C95.9191 188.403 164.112 188.403 164.949 188.403C165.555 188.418 166.158 188.313 166.724 188.095C167.29 187.878 167.807 187.549 168.247 187.131C168.686 186.713 169.038 186.213 169.283 185.658C169.529 185.104 169.664 184.506 169.678 183.9C169.678 183.885 169.678 153.714 169.678 152.498C169.676 150.795 170.016 149.108 170.679 147.537C171.34 145.968 172.31 144.547 173.531 143.358C174.753 142.17 176.2 141.24 177.788 140.622C179.375 140.003 181.07 139.709 182.773 139.758C184.477 139.808 186.152 140.198 187.702 140.907C189.251 141.615 190.642 142.628 191.794 143.884C192.944 145.14 193.832 146.615 194.402 148.22C194.973 149.825 195.215 151.528 195.115 153.23C195.12 153.328 195.163 153.42 195.234 153.488C195.305 153.556 195.399 153.593 195.497 153.593C195.596 153.593 195.691 153.556 195.762 153.488C195.833 153.42 195.876 153.328 195.881 153.23C195.975 151.321 195.668 149.415 194.979 147.634C194.29 145.852 193.237 144.233 191.885 142.884C190.449 141.464 188.712 140.383 186.803 139.723C184.894 139.064 182.861 138.841 180.855 139.072C178.848 139.302 176.918 139.98 175.209 141.056C173.5 142.132 172.054 143.578 170.977 145.288Z" fill="black"/>
<path d="M172.902 138.718C170.753 140.237 169 142.253 167.794 144.593C166.588 146.932 165.963 149.529 165.973 152.162C165.973 153.34 165.973 156.043 165.973 156.043C165.973 156.144 166.014 156.241 166.085 156.313C166.157 156.384 166.254 156.425 166.355 156.425C166.457 156.425 166.554 156.384 166.626 156.313C166.697 156.241 166.738 156.144 166.738 156.043C166.602 153.492 166.749 150.933 167.178 148.414C168.083 144.681 170.329 141.414 173.489 139.232C176.65 137.05 180.502 136.107 184.313 136.584C188.124 137.06 191.625 138.924 194.15 141.816C196.676 144.71 198.048 148.431 198.005 152.271V153.066C198.01 153.164 198.053 153.256 198.124 153.324C198.195 153.392 198.289 153.429 198.388 153.429C198.486 153.429 198.581 153.392 198.652 153.324C198.723 153.256 198.766 153.164 198.771 153.066C198.946 149.982 198.247 146.912 196.755 144.206C195.264 141.502 193.039 139.273 190.339 137.774C187.638 136.277 184.569 135.57 181.485 135.737C178.401 135.903 175.426 136.937 172.902 138.718Z" fill="black"/>
<path d="M134.137 87.7771C134.308 87.5441 134.305 88.285 134.25 80.8143C134.249 80.7129 134.208 80.6162 134.136 80.5447C134.065 80.4731 133.968 80.4326 133.867 80.4318H127.174C127.072 80.4332 126.976 80.4738 126.904 80.5452C126.833 80.6167 126.792 80.7131 126.79 80.8143V87.5127C126.791 87.614 126.832 87.7108 126.904 87.7824C126.975 87.854 127.072 87.8949 127.174 87.8963C134.593 87.9454 133.948 87.9381 134.137 87.7771ZM133.484 87.125H127.556V81.1968H133.484V87.125Z" fill="black"/>
<path d="M157.68 89.0028C159.265 89.0047 160.816 88.5363 162.136 87.6568C163.454 86.7775 164.484 85.5266 165.093 84.0624C165.701 82.5981 165.862 80.9863 165.554 79.4307C165.247 77.8751 164.485 76.4458 163.365 75.3231C162.245 74.2006 160.817 73.4353 159.263 73.1242C157.708 72.813 156.095 72.9699 154.629 73.575C153.164 74.1801 151.91 75.2062 151.028 76.5236C150.145 77.841 149.674 79.3905 149.672 80.9762C149.671 82.0291 149.877 83.072 150.278 84.0452C150.679 85.0185 151.269 85.9031 152.013 86.6485C152.757 87.3939 153.64 87.9855 154.612 88.3895C155.584 88.7934 156.626 89.0019 157.68 89.0028ZM155.129 74.1638C156.476 73.6613 157.942 73.5696 159.342 73.9004C160.742 74.2312 162.011 74.9695 162.991 76.0221C163.972 77.0746 164.617 78.3941 164.847 79.8137C165.077 81.2332 164.881 82.6891 164.283 83.9973C163.686 85.3054 162.715 86.4069 161.491 87.1627C160.267 87.9184 158.847 88.2944 157.41 88.2431C155.973 88.1917 154.583 87.7154 153.417 86.8742C152.25 86.0331 151.36 84.865 150.857 83.5176C150.184 81.7107 150.256 79.7106 151.058 77.9566C151.858 76.2027 153.323 74.8386 155.129 74.1638Z" fill="black"/>
<path d="M151.883 133.993C152.733 133.666 153.646 133.531 154.554 133.6C155.801 133.754 157.066 133.613 158.248 133.189C158.672 133.003 159.048 132.725 159.352 132.375C159.656 132.026 159.878 131.613 160.004 131.168C160.089 130.693 160.038 130.205 159.858 129.758C159.677 129.311 159.375 128.924 158.985 128.642C157.192 127.272 154.981 127.879 152.924 127.675C152.016 127.584 151.137 127.337 150.932 126.349C150.833 125.928 150.84 125.489 150.953 125.071C151.065 124.653 151.28 124.27 151.577 123.955C152.289 123.338 153.19 122.983 154.132 122.948C155.791 122.868 157.454 122.961 159.093 123.224C159.581 123.284 159.577 122.517 159.093 122.459C156.989 122.052 154.828 122.041 152.719 122.424C151.813 122.683 151.032 123.264 150.524 124.058C150.105 124.846 149.993 125.762 150.211 126.628C150.744 128.851 153.671 128.466 155.394 128.459C156.367 128.391 157.34 128.589 158.208 129.032C158.631 129.229 158.963 129.582 159.134 130.017C159.304 130.453 159.301 130.937 159.125 131.369C158.329 132.943 156.512 132.916 154.861 132.874C154.122 132.758 153.368 132.789 152.641 132.967C151.915 133.144 151.231 133.463 150.629 133.907C150.314 134.214 150.068 134.585 149.908 134.994C149.748 135.405 149.677 135.844 149.701 136.284C149.724 136.723 149.841 137.152 150.044 137.543C150.246 137.934 150.531 138.277 150.876 138.548C151.671 139.074 152.6 139.355 153.552 139.358C154.466 139.349 155.38 139.396 156.29 139.498C157.088 139.587 157.829 139.958 158.38 140.543C159.32 141.877 158.156 143.554 156.408 143.756C154.309 144.026 152.186 144.051 150.081 143.831C149.592 143.779 149.595 144.545 150.081 144.597C152.493 144.853 154.93 144.766 157.317 144.337C159.04 143.753 160.118 141.767 159.071 140.2C158.572 139.552 157.868 139.092 157.073 138.895C156.213 138.683 155.328 138.59 154.443 138.62C153.489 138.674 152.535 138.509 151.654 138.137C151.274 137.929 150.959 137.616 150.748 137.237C150.537 136.858 150.438 136.426 150.462 135.992C150.486 135.56 150.632 135.142 150.884 134.788C151.135 134.434 151.482 134.158 151.883 133.993Z" fill="black"/>
<path d="M130.694 56.8107C130.826 56.8859 130.276 56.8609 139.797 56.8609C139.863 56.8572 139.927 56.837 139.983 56.8023C140.04 56.7676 140.087 56.7195 140.119 56.6621C140.152 56.6048 140.17 56.5401 140.171 56.4741C140.172 56.4081 140.158 56.3427 140.128 56.284L135.668 48.6304C135.615 48.5427 135.53 48.4795 135.429 48.4551C135.33 48.4306 135.224 48.4466 135.137 48.4998C134.997 48.5855 135.314 48.1205 130.547 56.284C130.522 56.3282 130.506 56.3769 130.5 56.4274C130.494 56.4778 130.498 56.529 130.511 56.5779C130.525 56.6268 130.548 56.6724 130.579 56.7125C130.611 56.7524 130.65 56.7857 130.694 56.8107ZM135.337 49.5835L139.131 56.0949H131.544C131.704 55.8221 135.255 49.7277 135.337 49.5793V49.5835Z" fill="black"/>
<path d="M139.328 25.4085C139.635 25.401 139.94 25.4564 140.226 25.5713C140.511 25.686 140.769 25.8579 140.985 26.0761C141.202 26.2944 141.371 26.5546 141.483 26.8407C141.596 27.1268 141.648 27.4327 141.637 27.7399V31.7945C141.638 31.8955 141.679 31.9922 141.751 32.0638C141.822 32.1353 141.918 32.1763 142.02 32.178H148.788C148.89 32.1766 148.987 32.1358 149.058 32.0642C149.13 31.9925 149.171 31.8957 149.172 31.7945C149.217 25.5924 149.262 25.0877 148.81 23.4731C148.299 21.852 147.286 20.4356 145.917 19.4292C144.547 18.4226 142.892 17.8783 141.192 17.8751H139.328C139.226 17.8764 139.13 17.9171 139.058 17.9885C138.987 18.0599 138.946 18.1564 138.944 18.2575V25.0218C138.944 25.1239 138.984 25.2219 139.056 25.2944C139.128 25.3669 139.225 25.4079 139.328 25.4085ZM139.71 18.641H141.195C142.191 18.638 143.178 18.8414 144.091 19.2383C145.004 19.6353 145.826 20.2171 146.503 20.9474C147.181 21.6775 147.699 22.54 148.026 23.4808C148.355 24.4214 148.483 25.4196 148.406 26.4127V31.412H142.403V28.9771C142.57 27.8767 142.352 26.7522 141.786 25.7941C141.536 25.4737 141.222 25.2081 140.865 25.0138C140.509 24.8195 140.116 24.7006 139.71 24.6644V18.641Z" fill="black"/>
<path d="M141.736 126.449C141.833 126.446 141.925 126.405 141.994 126.338C142.062 126.269 142.103 126.177 142.106 126.079V110.442H152.641C152.694 110.439 152.745 110.426 152.792 110.403C152.839 110.381 152.881 110.35 152.915 110.311C152.951 110.272 152.977 110.227 152.995 110.178C153.011 110.129 153.019 110.076 153.016 110.024C153.004 109.775 149.964 104.689 143.668 93.8945C143.634 93.8376 143.585 93.7905 143.527 93.7579C143.469 93.7252 143.404 93.7081 143.338 93.7081C143.271 93.7081 143.205 93.7252 143.148 93.7579C143.089 93.7905 143.041 93.8376 143.007 93.8945L133.706 109.864C133.657 109.953 133.645 110.058 133.673 110.156C133.7 110.253 133.765 110.337 133.852 110.387C133.989 110.463 133.559 110.436 141.343 110.436V126.073C141.344 126.123 141.354 126.174 141.375 126.219C141.395 126.267 141.424 126.308 141.461 126.343C141.498 126.378 141.54 126.405 141.587 126.423C141.635 126.442 141.686 126.45 141.736 126.449ZM134.7 109.676L143.338 94.8496L151.975 109.676H142.106V107.254C142.1 107.156 142.058 107.064 141.987 106.996C141.916 106.928 141.821 106.89 141.723 106.89C141.625 106.89 141.53 106.928 141.459 106.996C141.388 107.064 141.345 107.156 141.34 107.254V109.676H134.7Z" fill="black"/>
<path d="M137.399 88.6173V72.052C137.394 71.9538 137.351 71.8615 137.28 71.7938C137.209 71.7261 137.114 71.6884 137.015 71.6884C136.917 71.6884 136.823 71.7261 136.752 71.7938C136.681 71.8615 136.638 71.9538 136.633 72.052V88.6173C136.638 88.7154 136.681 88.8078 136.752 88.8754C136.823 88.9431 136.917 88.9808 137.015 88.9808C137.114 88.9808 137.209 88.9431 137.28 88.8754C137.351 88.8078 137.394 88.7154 137.399 88.6173Z" fill="black"/>
<path d="M143.423 71.6746V47.9531C143.418 47.855 143.375 47.7625 143.304 47.6949C143.233 47.6273 143.139 47.5895 143.041 47.5895C142.943 47.5895 142.847 47.6273 142.776 47.6949C142.705 47.7625 142.662 47.855 142.657 47.9531V71.6746C142.662 71.7726 142.705 71.8651 142.776 71.9327C142.847 72.0003 142.943 72.038 143.041 72.038C143.139 72.038 143.233 72.0003 143.304 71.9327C143.375 71.8651 143.418 71.7726 143.423 71.6746Z" fill="black"/>
<path d="M147.57 60.1923V42.1201C147.564 42.022 147.522 41.9296 147.451 41.8619C147.38 41.7943 147.285 41.7565 147.187 41.7565C147.089 41.7565 146.994 41.7943 146.923 41.8619C146.852 41.9296 146.809 42.022 146.804 42.1201V60.1923C146.809 60.2904 146.852 60.3828 146.923 60.4504C146.994 60.5181 147.089 60.5558 147.187 60.5558C147.285 60.5558 147.38 60.5181 147.451 60.4504C147.522 60.3828 147.564 60.2904 147.57 60.1923Z" fill="black"/>
<path d="M91.9981 144.185C97.2142 142.231 102.645 140.904 108.174 140.233C108.657 140.175 108.662 139.409 108.174 139.467C102.575 140.131 97.0752 141.467 91.7953 143.446C91.3366 143.618 91.5351 144.361 91.9981 144.185Z" fill="black"/>
<path d="M107.269 136.105C101.602 137.015 96.0567 138.565 90.7382 140.723C90.2868 140.906 90.4843 141.647 90.9472 141.462C96.2666 139.306 101.812 137.757 107.478 136.844C107.958 136.768 107.755 136.029 107.269 136.105Z" fill="black"/>
<path d="M10.4838 30.3291C10.7617 30.7314 11.4243 30.349 11.1442 29.9424L4.97867 20.9993C4.7007 20.596 4.03817 20.9784 4.31719 21.386L10.4838 30.3291Z" fill="black"/>
<path d="M15.498 29.6249C15.6025 30.1067 16.3444 29.9029 16.2368 29.4222C15.9076 27.9362 13.3108 16.2217 13.3108 16.2217C13.2063 15.741 12.4654 15.9438 12.572 16.4307C12.897 17.9094 15.1416 28.0198 15.498 29.6249Z" fill="black"/>
</svg>
