<svg width="132" height="126" viewBox="0 0 132 126" fill="none" xmlns="http://www.w3.org/2000/svg">
<path d="M1.50012 82.4999C9.00012 74.9999 10.5002 62.4999 33.5002 64.4689C51.0001 67.9999 51.9663 68.1355 63.5791 60.5978C71.7449 55.2975 84.6673 45.9297 86.4669 35.3329C86.8571 33.0351 83.3473 27.8335 81.2482 26.8285C76.1814 24.4027 73.6366 25.4242 68.3867 27.4274C49.2112 34.7442 54.3347 58.7782 71.8607 64.4689C83.202 68.1515 98.7055 63.8798 108.731 57.6285C114.232 54.1981 123.628 43.5172 129.991 43.4082" stroke="#5F1DA0" stroke-width="3" stroke-linecap="round"/>
<path d="M129.712 43.5584L115.3 37.7671" stroke="#5F1DA0" stroke-width="3" stroke-linecap="round"/>
<path d="M129.496 44.0093L122.098 55.989" stroke="#5F1DA0" stroke-width="3" stroke-linecap="round"/>
</svg>
