<svg width="198" height="114" viewBox="0 0 198 114" fill="none" xmlns="http://www.w3.org/2000/svg">
<path d="M115.448 34.8688C115.199 33.7391 114.679 32.687 113.933 31.8024C113.188 30.9179 112.239 30.2275 111.168 29.7905C109.954 29.323 108.634 29.2001 107.355 29.4356C106.076 29.6712 104.886 30.2557 103.918 31.1248C103.901 29.6847 103.695 28.2529 103.307 26.866C101.184 20.6 88.4957 17.688 81.2272 26.1297C79.0161 28.7014 77.3468 31.6928 76.3194 34.9249C75.184 34.0193 73.8428 33.4076 72.4146 33.1442C70.9864 32.8808 69.5152 32.9738 68.1315 33.4149C63.933 34.8844 61.9508 39.7932 64.4915 43.4581C63.2809 43.3446 62.06 43.4831 60.9056 43.8648C60.3686 44.0478 59.8729 44.335 59.447 44.7097C59.021 45.0845 58.6731 45.5395 58.4231 46.0488C57.433 48.4408 59.3414 50.787 61.7896 51.5306C67.5322 48.4598 73.4598 45.7481 79.5382 43.4113C85.9862 41.0193 92.5746 39.6611 99.2294 41.4031C99.479 40.3407 99.9314 39.3367 100.562 38.4464C100.759 38.1112 101.064 37.8533 101.428 37.7148C101.791 37.5764 102.19 37.566 102.561 37.6851C102.912 37.847 103.212 38.1029 103.427 38.4243C103.642 38.7459 103.765 39.1206 103.78 39.5072C104.485 38.28 105.557 37.0996 106.912 37.8047C107.268 38.0393 107.565 38.3512 107.783 38.7172C108.001 39.0832 108.134 39.4937 108.17 39.918C108.482 41.6548 108.186 42.1831 108.186 44.8933C108.186 46.6738 109.549 47.4777 111.32 47.6556C111.496 47.3561 111.671 47.0555 111.84 46.7518C111.236 46.6947 110.661 46.4694 110.179 46.1014C109.696 45.7333 109.327 45.2375 109.113 44.6701C108.898 44.1026 108.847 43.4864 108.965 42.8914C109.083 42.2965 109.366 41.7466 109.781 41.3043C110.187 40.8397 110.72 40.5045 111.315 40.3402C111.909 40.1758 112.539 40.1896 113.126 40.3797C113.591 40.5733 114.012 40.856 114.368 41.2117C114.69 40.2989 114.96 39.3688 115.179 38.4256C115.515 37.2716 115.607 36.0602 115.448 34.8688Z" fill="black"/>
<path d="M143.108 69.5778C143.096 69.5819 143.085 69.5861 143.072 69.5882C139.763 69.9272 136.425 69.869 133.128 69.4155C133.083 69.403 133.042 69.3822 133.005 69.3542C132.968 69.325 132.938 69.2897 132.915 69.2491C132.892 69.2086 132.877 69.1649 132.871 69.1181C132.866 69.0723 132.869 69.0255 132.881 68.9808C132.908 68.8914 132.969 68.8165 133.05 68.7707C133.131 68.725 133.226 68.7114 133.316 68.7343C136.537 69.167 139.796 69.2179 143.029 68.883C143.298 68.7905 143.534 68.6199 143.707 68.3942C143.776 68.2466 143.806 68.0833 143.794 67.92C143.782 67.7578 143.729 67.6007 143.638 67.4645C143.351 66.9226 142.928 66.4661 142.409 66.1395C141.293 65.4458 140.059 64.9622 138.769 64.7137C138.614 64.696 138.463 64.6482 138.325 64.5743C138.073 64.8385 138.429 64.6107 131.947 63.4147C131.499 63.3326 131.691 62.6514 132.136 62.7335C133.988 63.0746 135.833 63.4532 137.67 63.8702C137.572 63.7662 134.898 60.744 134.72 60.5422C131.552 61.1985 124.092 63.2254 120.973 64.0928C122.152 70.573 122.429 78.6684 117.743 83.2434C120.479 82.6547 123.159 81.8269 125.751 80.7713C133.598 77.6066 141.101 73.2615 142.214 73.9073C143.138 74.4481 144.024 75.0513 144.865 75.7127C145.366 76.1329 146.008 76.3461 146.66 76.3076C147.167 76.344 147.666 76.1776 148.051 75.8469C148.435 75.5151 148.673 75.045 148.711 74.5396C146.737 73.0098 144.865 71.353 143.108 69.5778Z" fill="white"/>
<path d="M153.687 71.7098C153.429 70.6115 152.92 69.5882 152.202 68.7187C149.624 64.8894 146.198 61.4866 141.736 60.3831C141.937 60.6878 148.369 70.5127 148.673 70.9828C149.242 70.6063 149.013 69.791 148.734 69.2928C147.489 67.2097 145.952 65.3138 144.173 63.6633C143.839 63.3513 144.34 62.8531 144.673 63.163C146.038 64.4339 147.266 65.8442 148.336 67.3709C148.918 68.0614 149.369 68.8518 149.668 69.7036C149.778 70.0395 149.778 70.4025 149.667 70.7384C149.558 71.0743 149.345 71.3676 149.059 71.5756C149.32 71.9791 150.21 73.3873 150.398 73.6868C150.734 73.7658 151.074 73.8272 151.418 73.8709C151.727 73.9385 152.047 73.9302 152.353 73.849C152.658 73.7679 152.94 73.614 153.174 73.4018C153.372 73.1782 153.521 72.9151 153.611 72.6302C153.7 72.3452 153.729 72.0446 153.694 71.7482C153.693 71.7358 153.69 71.7222 153.687 71.7098Z" fill="white"/>
<path d="M99.3214 51.9039C99.5606 54.9012 100.14 57.8621 101.047 60.7283C101.79 62.9799 103.045 65.0287 104.713 66.7135C105.201 62.6752 104.71 58.5776 103.281 54.7692C102.372 52.5015 100.849 50.5318 98.8846 49.0804C97.568 48.0976 96.5716 48.2275 95.3236 48.1027C94.1526 47.9852 92.8183 47.5827 92.5343 46.2692C92.4572 45.605 92.6084 44.9342 92.9629 44.3672C93.3175 43.8002 93.8544 43.3706 94.4854 43.1492C95.9414 42.5752 97.5513 43.1492 98.9376 43.7618C98.9332 42.9654 99.0312 42.1716 99.2278 41.4C92.5718 39.659 85.9938 41.0162 79.5364 43.4082C74.9875 45.1342 70.5341 47.1023 66.1953 49.3039C66.276 49.2627 66.3693 49.2534 66.4566 49.2782C66.5437 49.3028 66.6184 49.3596 66.6654 49.4371C67.535 51.1292 68.2917 52.8772 68.9305 54.6693C72.1909 63.7963 73.2018 76.3013 72.3812 85.8277C72.3786 85.9171 72.3431 86.0024 72.2812 86.0669C72.2193 86.1324 72.1357 86.1719 72.0464 86.1782C72.1504 86.2 71.8498 86.1782 102.217 86.1782C96.3834 84.5142 92.7704 80.8908 89.3696 75.9456C85.1806 69.8252 82.5234 62.7875 81.6216 55.4254C81.5728 54.973 82.28 54.9782 82.3288 55.4254C82.7244 58.9614 83.5782 62.4298 84.8685 65.7453C85.9449 65.4052 98.2845 61.2452 100.272 60.5921C99.4233 57.7602 98.8675 54.8491 98.6142 51.9039C98.5757 51.4463 99.2829 51.4505 99.3214 51.9039Z" fill="#B999BE"/>
<path d="M116.755 50.1516C116.44 49.3841 115.9 48.7295 115.207 48.2734C113.201 47.2094 110.867 48.3087 108.958 46.7841C108.709 46.5373 108.511 46.2424 108.378 45.9173C108.245 45.5922 108.178 45.2436 108.184 44.8923C108.184 42.2497 108.482 41.6382 108.168 39.917C108.132 39.4926 107.999 39.0821 107.781 38.7162C107.563 38.3502 107.265 38.0383 106.91 37.8037C105.558 37.0986 104.482 38.279 103.778 39.5062C103.763 39.1196 103.64 38.7449 103.425 38.4233C103.209 38.1018 102.91 37.846 102.558 37.6841C102.188 37.565 101.789 37.5754 101.426 37.7138C101.062 37.8522 100.757 38.1102 100.559 38.4454C99.4903 40.0067 98.9246 41.8574 98.937 43.7494C97.5507 43.1389 95.9418 42.5627 94.4848 43.1368C93.8538 43.3582 93.3168 43.7877 92.9623 44.3547C92.6078 44.9218 92.4566 45.5925 92.5337 46.2568C92.8176 47.5745 94.152 47.9728 95.323 48.0903C96.5835 48.2162 97.5694 48.0903 98.884 49.0679C100.849 50.5193 102.371 52.4891 103.28 54.7567C104.709 58.5652 105.2 62.6628 104.712 66.7011C103.039 65.0205 101.783 62.9706 101.046 60.7159C101.019 60.6265 100.959 60.5516 100.878 60.5058C100.798 60.4601 100.702 60.4466 100.611 60.4694C100.498 60.5069 84.664 65.8036 84.56 65.8348C84.471 65.8608 84.3955 65.9201 84.3493 66.0012C84.3032 66.0813 84.29 66.1759 84.3125 66.2664C86.6317 72.3608 91.2805 80.1088 96.7572 83.6854C103.972 88.3966 113.937 87.9785 118.571 82.325C124.737 74.8131 120.535 59.1081 116.755 50.1516ZM107.111 83.8424H110.184C110.277 83.8424 110.368 83.8798 110.433 83.9464C110.5 84.0119 110.537 84.1024 110.537 84.196C110.537 84.2896 110.5 84.3801 110.433 84.4456C110.368 84.5122 110.277 84.5496 110.184 84.5496H107.111C107.065 84.5506 107.018 84.5423 106.974 84.5246C106.929 84.508 106.89 84.482 106.857 84.4487C106.822 84.4154 106.796 84.377 106.778 84.3333C106.759 84.2896 106.749 84.2428 106.749 84.196C106.749 84.1492 106.758 84.1014 106.777 84.0587C106.794 84.015 106.821 83.9755 106.855 83.9422C106.889 83.909 106.929 83.883 106.973 83.8663C107.017 83.8486 107.065 83.8414 107.111 83.8424ZM100.005 47.1918L101.382 48.5864C101.702 48.9109 101.202 49.4111 100.882 49.0866L99.5048 47.692C99.1804 47.3675 99.6806 46.8673 100.001 47.1918H100.005ZM103.333 47.4206C103.095 46.5592 102.925 45.6804 102.825 44.7925C102.768 44.3422 103.476 44.3474 103.532 44.7925C103.644 45.6147 103.805 46.4294 104.015 47.2323C104.04 47.3228 104.028 47.4195 103.982 47.5011C103.935 47.5827 103.859 47.6426 103.769 47.6676C103.678 47.6925 103.582 47.6806 103.499 47.6342C103.418 47.5879 103.358 47.511 103.333 47.4206Z" fill="white"/>
<path d="M115.525 43.247C115.275 42.2192 114.652 41.3209 113.777 40.7261C113.154 40.3195 112.404 40.1539 111.669 40.2602C110.933 40.3663 110.261 40.7372 109.778 41.3033C109.407 41.6999 109.141 42.1839 109.006 42.7104C108.87 43.2369 108.87 43.7891 109.006 44.3156C109.14 44.8423 109.405 45.3264 109.777 45.7234C110.149 46.1202 110.614 46.4171 111.13 46.5865C112.035 46.8947 113.022 46.8577 113.901 46.4825C114.508 46.2195 115.003 45.7512 115.301 45.1598C115.598 44.5683 115.677 43.8912 115.525 43.247Z" fill="white"/>
<path d="M103.531 44.7925C103.475 44.3473 102.767 44.3421 102.823 44.7925C102.924 45.6804 103.094 46.5592 103.332 47.4205C103.345 47.4654 103.365 47.5073 103.394 47.5439C103.423 47.5806 103.458 47.6113 103.498 47.6342C103.539 47.6571 103.584 47.6719 103.629 47.6776C103.676 47.6833 103.723 47.6799 103.768 47.6675C103.813 47.6552 103.854 47.6342 103.891 47.6056C103.928 47.577 103.958 47.5415 103.981 47.501C104.004 47.4607 104.018 47.4162 104.025 47.37C104.03 47.3239 104.027 47.2771 104.014 47.2323C103.804 46.4295 103.643 45.6148 103.531 44.7925Z" fill="black"/>
<path d="M100.002 47.1917C99.6813 46.8673 99.1811 47.3675 99.5014 47.692L100.878 49.0866C101.199 49.4111 101.699 48.9109 101.379 48.5864L100.002 47.1917Z" fill="black"/>
<path d="M110.179 83.8424H107.111C107.018 83.8424 106.927 83.8799 106.862 83.9464C106.795 84.0119 106.758 84.1024 106.758 84.196C106.758 84.2896 106.795 84.3801 106.862 84.4456C106.927 84.5122 107.018 84.5496 107.111 84.5496H110.184C110.277 84.5496 110.368 84.5122 110.433 84.4456C110.5 84.3801 110.537 84.2896 110.537 84.196C110.537 84.1024 110.5 84.0119 110.433 83.9464C110.368 83.8799 110.277 83.8424 110.184 83.8424H110.179Z" fill="black"/>
<path d="M72.5441 75.0221C72.0792 66.2258 70.6929 57.262 66.6649 49.4319C66.6183 49.3541 66.5436 49.297 66.4562 49.2723C66.369 49.2475 66.2755 49.257 66.1949 49.2988C65.9869 49.383 51.8169 56.7036 50.6625 57.313C49.3281 53.777 47.7692 50.3284 46.1301 46.9234C44.8104 44.184 43.4948 41.5154 40.1044 41.5383C36.2065 41.5685 34.3095 46.1663 33.1665 49.8947C31.1927 55.873 30.0809 62.1022 29.8645 68.3942C24.7186 71.145 19.6361 74.0237 14.3925 76.5842C13.8538 76.8328 13.337 77.125 12.847 77.4588C12.3342 77.8374 11.9017 78.3137 11.5748 78.8608C11.2479 79.4078 11.0331 80.0152 10.9429 80.6454C10.8527 81.2767 10.8889 81.9194 11.0494 82.5361C11.2099 83.1529 11.4915 83.7321 11.8777 84.2386C12.3297 84.8397 12.9151 85.3275 13.5877 85.6634C14.2604 85.9993 15.0018 86.1751 15.7538 86.1761C15.8578 86.1761 71.9409 86.1938 72.0459 86.1761C72.1351 86.1699 72.2189 86.1304 72.2806 86.0648C72.3425 86.0004 72.3782 85.9151 72.3808 85.8257C72.6854 82.2325 72.74 78.6226 72.5441 75.0221ZM45.3013 63.0621C46.0343 61.2151 47.3243 59.6416 48.9922 58.561C49.376 58.3124 49.7296 58.925 49.3489 59.1715C47.8319 60.1501 46.656 61.5749 45.9835 63.2504C45.8161 63.6685 45.1338 63.4854 45.3013 63.0621ZM41.1829 86.1761C36.9074 86.2406 32.8909 82.8845 31.3237 78.8732C30.2136 75.9384 29.7754 72.7924 30.0413 69.6661C30.0757 69.2137 30.7787 69.2117 30.7485 69.6661C30.0757 79.9912 35.4202 85.2786 41.1829 85.4689C41.2293 85.471 41.2751 85.4814 41.3175 85.5012C41.3599 85.5199 41.3979 85.548 41.4297 85.5812C41.4614 85.6156 41.486 85.6561 41.5021 85.6998C41.5184 85.7435 41.5257 85.7892 41.524 85.836C41.5214 85.9255 41.4846 86.0108 41.4211 86.0742C41.3577 86.1376 41.2724 86.174 41.1829 86.1761Z" fill="white"/>
<path d="M47.4096 39.9731C45.7258 39.1629 33.0711 33.0914 32.4617 32.7794C32.4006 32.7463 32.3313 32.7316 32.2622 32.7371C32.193 32.7425 32.1269 32.768 32.0719 32.8102C32.0168 32.8524 31.9752 32.9097 31.9522 32.9751C31.9291 33.0406 31.9253 33.1113 31.9417 33.1788C32.2175 34.1982 32.723 35.1409 33.4195 35.9348C35.998 38.9198 39.6013 40.8304 43.5189 41.2897C44.8556 41.4151 46.2011 41.1708 47.4085 40.5836C47.4596 40.5595 47.5029 40.5215 47.5331 40.4737C47.5633 40.426 47.5792 40.3707 47.5791 40.3142C47.5972 40.2465 47.5899 40.1744 47.5587 40.1116C47.5275 40.0488 47.4745 39.9996 47.4096 39.9731Z" fill="black"/>
<path d="M11.4412 72.5688C11.4304 72.5147 11.4055 72.4658 11.3689 72.4242C11.3323 72.3837 11.2854 72.3545 11.2332 72.3379C11.1722 72.2994 11.099 72.2859 11.0285 72.2994C10.9579 72.314 10.8953 72.3545 10.8536 72.4128L0.29649 85.211C0.249534 85.261 0.218074 85.3244 0.205875 85.392C0.193665 85.4596 0.201237 85.5293 0.227663 85.5938C0.254089 85.6572 0.298269 85.7113 0.354918 85.7508C0.411566 85.7903 0.478293 85.8122 0.547131 85.8142C2.84241 85.8631 5.01913 84.3707 6.70083 82.9418C8.73673 81.232 10.2866 79.0168 11.1947 76.5177C11.6383 75.2489 11.7236 73.8823 11.4412 72.5688Z" fill="black"/>
<path d="M150.782 74.3742C150.779 74.317 150.761 74.2619 150.731 74.214C150.622 74.0383 149.32 71.9822 149.059 71.5787C149.026 71.6036 148.991 71.6265 148.955 71.6473C148.551 71.8553 148.194 71.2459 148.599 71.0368C148.71 70.9557 150.175 73.2208 129.126 41.3282C129.077 41.2491 128.999 41.1919 128.909 41.1683C128.819 41.1446 128.723 41.1565 128.642 41.2013C126.515 42.3755 124.494 43.7326 122.602 45.2573C122.537 45.3245 122.501 45.4142 122.501 45.5074C122.501 45.6007 122.537 45.6904 122.602 45.7576C128.253 53.0573 134.124 59.9796 137.668 63.8681C137.842 63.9076 138.018 63.9409 138.188 63.9825C138.249 63.9981 138.304 64.0293 138.347 64.0751C138.391 64.1198 138.422 64.176 138.436 64.2363C138.449 64.2976 138.446 64.3611 138.426 64.4204C138.406 64.4796 138.369 64.5327 138.321 64.5722C138.46 64.646 138.61 64.6939 138.766 64.7116C140.056 64.9601 141.29 65.4437 142.406 66.1374C142.924 66.464 143.348 66.9205 143.635 67.4624C143.725 67.5986 143.778 67.7556 143.791 67.9179C143.802 68.0812 143.772 68.2444 143.703 68.3921C143.371 68.83 142.909 68.8955 143.069 68.8788C143.509 68.8341 143.514 69.4935 143.104 69.5756C145.06 71.56 147.167 73.3883 149.405 75.0471C149.742 75.2842 150.1 75.4891 150.496 75.227C150.632 75.1376 150.734 75.0044 150.786 74.8505C150.838 74.6956 150.837 74.5281 150.782 74.3742Z" fill="#EAEAEA"/>
<path d="M122.245 44.1716C123.926 42.5658 125.854 41.2391 127.954 40.2414C128.365 40.047 128.006 39.4365 127.598 39.631C125.444 40.6574 123.468 42.0214 121.745 43.6714C121.415 43.9865 121.916 44.4857 122.245 44.1716Z" fill="#EAEAEA"/>
<path d="M191.759 14.256C189.943 10.6898 185.343 8.72835 179.192 11.3273C173.073 13.9138 168.376 19.3624 165.558 25.1593C161.629 33.2339 160.403 41.6506 157.997 51.4224C156.608 57.0665 155.844 57.5584 155.117 60.3904C154.918 60.9145 154.829 61.4751 154.856 62.0356C154.884 62.5962 155.029 63.1453 155.28 63.6476C156.216 64.9622 158.504 64.5504 159.882 63.5603C161.215 58.9229 162.984 54.4231 165.167 50.1204C166.281 48.0799 167.697 45.743 170.069 45.0192C170.568 44.8418 171.097 44.7732 171.623 44.8178C172.15 44.8625 172.661 45.0195 173.122 45.2781C173.583 45.5369 173.982 45.8912 174.294 46.3175C174.607 46.7437 174.824 47.2319 174.931 47.7492C175.324 47.3332 179.908 42.4379 181.805 40.4099C186.946 34.9166 191.947 29.1633 192.792 21.3519C193.071 18.9369 192.715 16.4909 191.759 14.256ZM178.159 35.9192C177.636 37.3524 177.009 38.7449 176.281 40.0854C176.064 40.4858 175.449 40.128 175.671 39.7287C176.371 38.4427 176.975 37.1065 177.476 35.7309C177.631 35.3066 178.315 35.4907 178.159 35.9192ZM181.091 20.2079C181.686 19.1472 182.398 18.1568 183.214 17.2553C183.52 16.9163 184.018 17.4176 183.714 17.7556C182.94 18.6128 182.264 19.5549 181.702 20.5635C181.653 20.6402 181.576 20.6949 181.488 20.7162C181.398 20.7375 181.306 20.7239 181.227 20.6781C181.148 20.6321 181.089 20.5576 181.064 20.4701C181.039 20.3825 181.049 20.2886 181.091 20.2079ZM186.88 24.8639C186.628 25.3397 186.305 25.7743 185.922 26.1525C185.772 26.3281 185.579 26.4606 185.362 26.5365C185.144 26.6123 184.91 26.6287 184.684 26.5841C183.844 26.3563 183.707 25.2924 183.821 24.5686C183.937 23.804 184.257 23.085 184.749 22.4886C184.86 22.3573 184.997 22.2493 185.151 22.1707C185.303 22.0921 185.471 22.0445 185.642 22.0306C185.814 22.0166 185.988 22.0367 186.151 22.0897C186.315 22.1425 186.467 22.2272 186.598 22.3388C186.924 22.6661 187.129 23.0938 187.18 23.5523C187.23 24.0107 187.125 24.473 186.88 24.8639ZM173.794 20.3504C173.228 21.2309 172.662 22.1121 172.095 22.994C171.849 23.3757 171.237 23.0211 171.484 22.6363L173.183 19.9936C173.429 19.612 174.041 19.9666 173.794 20.3504ZM174.239 28.6506C174.888 27.6064 175.442 26.5062 175.894 25.3632C176.06 24.9472 176.743 25.1281 176.577 25.5514C176.106 26.7528 175.527 27.9095 174.849 29.0073C174.608 29.3942 173.999 29.0385 174.239 28.6506Z" fill="#EAEAEA"/>
<path d="M121.278 42.8383C122.892 41.1267 124.838 39.7631 126.998 38.8312C127.414 38.6512 127.055 38.0408 126.642 38.2207C124.427 39.1793 122.434 40.5804 120.781 42.338C120.466 42.6688 120.965 43.168 121.278 42.8383Z" fill="#EAEAEA"/>
<path d="M131.946 63.4147C138.429 64.6117 138.072 64.8384 138.323 64.5743C138.371 64.5348 138.408 64.4817 138.428 64.4224C138.448 64.3632 138.451 64.2997 138.438 64.2384C138.424 64.178 138.394 64.1219 138.35 64.0772C138.307 64.0314 138.25 64.0002 138.19 63.9846C137.738 63.8806 134.753 63.2181 132.134 62.7366C131.689 62.6503 131.498 63.3325 131.946 63.4147Z" fill="black"/>
<path d="M174.951 47.8116C174.85 47.287 174.637 46.7903 174.327 46.3556C174.016 45.9208 173.616 45.5584 173.152 45.2928C172.689 45.0273 172.173 44.865 171.641 44.8171C171.109 44.769 170.573 44.8366 170.069 45.015C167.697 45.743 166.28 48.0757 165.167 50.1162C163.162 54.0102 161.53 58.0847 160.289 62.2842C158.466 67.9418 157.134 72.628 153.454 79.0064C153.759 78.945 155.755 78.5488 156.209 78.4614C156.507 78.2139 156.804 77.9664 157.108 77.7272C162.997 73.0877 167.465 68.6708 171.356 61.1506C172.474 58.9853 173.409 56.7305 174.149 54.4093C174.808 52.3304 175.493 50.0018 174.951 47.8116ZM168.95 51.7833C168.257 52.6876 167.653 53.6565 167.147 54.6766C166.939 55.0843 166.333 54.7255 166.535 54.3199C167.043 53.2998 167.647 52.3309 168.34 51.4266C168.613 51.072 169.228 51.4224 168.95 51.7833Z" fill="#B999BE"/>
<path d="M133.32 68.7343C133.229 68.7114 133.133 68.725 133.053 68.7707C132.972 68.8165 132.912 68.8913 132.885 68.9808C132.872 69.0255 132.869 69.0723 132.874 69.1181C132.881 69.1649 132.895 69.2085 132.918 69.2491C132.941 69.2897 132.971 69.325 133.008 69.3541C133.045 69.3822 133.087 69.403 133.131 69.4155C136.427 69.8689 139.766 69.9272 143.076 69.5881C143.546 69.4706 143.523 68.8331 143.032 68.883C139.8 69.2158 136.54 69.1649 133.32 68.7343Z" fill="black"/>
<path d="M149.668 69.7035C149.369 68.8518 148.917 68.0614 148.336 67.3708C147.266 65.8441 146.037 64.4339 144.673 63.163C144.34 62.851 143.841 63.3523 144.173 63.6632C145.952 65.3137 147.488 67.2096 148.734 69.2927C149.013 69.7909 149.242 70.6063 148.673 70.9828C148.649 71.0025 148.624 71.0202 148.598 71.0368C148.193 71.2448 148.55 71.8564 148.955 71.6473C148.99 71.6265 149.025 71.6036 149.059 71.5787C149.346 71.3707 149.559 71.0774 149.668 70.7404C149.778 70.4035 149.778 70.0405 149.668 69.7035Z" fill="black"/>
<path d="M156.292 31.7009C155.774 31.1745 155.069 30.8739 154.33 30.8645C153.592 30.8552 152.879 31.1379 152.348 31.651C151.071 32.899 150.788 35.187 150.718 36.9633C150.676 37.9256 150.85 38.8852 151.228 39.7713C151.426 40.2458 151.746 40.6603 152.153 40.9743C152.561 41.2883 153.043 41.4908 153.552 41.5622C155.578 41.6912 156.82 38.7136 157.391 36.7616C157.704 35.9003 157.767 34.968 157.573 34.0724C157.378 33.1768 156.934 32.3547 156.292 31.7009Z" fill="#B999BE"/>
<path d="M154.607 23.8687C153.862 19.8127 149.326 16.4587 146.787 16.6875C146.223 16.7459 145.686 16.957 145.234 17.2981C144.782 17.6392 144.432 18.0972 144.221 18.6229C142.613 22.5073 143.556 29.4649 147.508 30.9885C148.56 31.3493 149.699 31.3651 150.758 31.0337C151.819 30.7022 152.747 30.0408 153.405 29.1457C153.961 28.3981 154.356 27.5426 154.563 26.634C154.77 25.7254 154.785 24.7835 154.607 23.8687Z" fill="#B999BE"/>
<path d="M169.127 13.8628C168.76 13.5712 168.3 13.4193 167.831 13.434C167.362 13.4486 166.914 13.629 166.565 13.9429C164.987 15.3147 164.79 18.3297 166.906 18.5252C168.904 18.7082 170.54 15.2544 169.127 13.8628Z" fill="#B999BE"/>
<path d="M186.601 22.3378C186.47 22.2262 186.318 22.1415 186.154 22.0886C185.991 22.0357 185.817 22.0156 185.645 22.0296C185.474 22.0435 185.306 22.0911 185.153 22.1696C185 22.2483 184.863 22.3563 184.752 22.4876C183.599 23.8656 183.373 26.2243 184.687 26.581C184.913 26.6256 185.147 26.6092 185.365 26.5334C185.582 26.4575 185.775 26.325 185.925 26.1494C186.307 25.7719 186.629 25.3384 186.88 24.864C187.125 24.4733 187.231 24.011 187.181 23.5523C187.131 23.0936 186.926 22.6655 186.601 22.3378Z" fill="#EAEAEA"/>
<path d="M177.02 78.3262C176.886 77.6565 176.515 77.0574 175.978 76.6383C175.439 76.2182 174.768 76.005 174.086 76.0382C161.996 76.7465 151.917 79.1582 140.078 82.0578C138.611 82.4166 135.103 83.2985 134.964 83.3463C134.475 83.5086 134.048 83.8154 133.738 84.2262C133.428 84.637 133.25 85.133 133.229 85.6468C133.23 85.7404 133.267 85.8299 133.334 85.8964C133.4 85.9619 133.49 85.9994 133.583 86.0004H176.779C176.872 85.9994 176.962 85.9619 177.028 85.8964C177.094 85.8299 177.131 85.7404 177.132 85.6468C177.13 85.5366 177.104 78.9544 177.02 78.3262Z" fill="#EAEAEA"/>
<path d="M150.896 50.8899C150.792 50.1723 150.432 49.2083 149.554 49.28C149.144 49.3203 148.762 49.5061 148.477 49.804C148.192 50.1018 148.023 50.4919 148.001 50.9035C147.897 51.7385 148.05 52.5855 148.441 53.3308C148.528 53.5063 148.655 53.6589 148.811 53.7766C148.967 53.8942 149.149 53.9734 149.341 54.0079C149.566 53.9981 149.784 53.9315 149.976 53.8144C150.169 53.6973 150.328 53.5334 150.439 53.3381C150.867 52.598 151.028 51.7342 150.896 50.8899Z" fill="#B999BE"/>
<path d="M169.344 68.7988L167.287 72.5293C167.068 72.9286 167.678 73.2864 167.898 72.887L169.955 69.1565C170.174 68.7572 169.564 68.3994 169.344 68.7988Z" fill="black"/>
<path d="M167.147 54.6766C167.653 53.6565 168.258 52.6876 168.95 51.7833C169.228 51.4224 168.613 51.0699 168.34 51.4266C167.647 52.3309 167.043 53.2998 166.535 54.3199C166.334 54.7255 166.944 55.0843 167.147 54.6766Z" fill="black"/>
<path d="M177.476 35.731C176.974 37.1066 176.37 38.4429 175.67 39.7287C175.453 40.1281 176.063 40.4858 176.281 40.0854C177.009 38.745 177.636 37.3524 178.158 35.9192C178.314 35.4907 177.63 35.3066 177.476 35.731Z" fill="black"/>
<path d="M175.894 25.3632C175.442 26.5062 174.887 27.6064 174.239 28.6506C173.998 29.0385 174.61 29.3942 174.849 29.0073C175.527 27.9095 176.105 26.7528 176.576 25.5514C176.743 25.1281 176.064 24.944 175.894 25.3632Z" fill="black"/>
<path d="M181.702 20.5646C182.265 19.5559 182.941 18.6139 183.714 17.7566C184.018 17.4186 183.52 16.9173 183.214 17.2564C182.398 18.1579 181.686 19.1483 181.091 20.2089C181.049 20.2895 181.039 20.3836 181.064 20.4711C181.089 20.5587 181.148 20.6332 181.227 20.6791C181.306 20.725 181.398 20.7386 181.488 20.7173C181.576 20.696 181.653 20.6413 181.702 20.5646Z" fill="black"/>
<path d="M173.183 19.9937C172.617 20.8742 172.05 21.7551 171.483 22.6363C171.237 23.0211 171.848 23.3757 172.095 22.994C172.661 22.1121 173.226 21.2309 173.793 20.3504C174.041 19.9666 173.428 19.612 173.183 19.9937Z" fill="black"/>
<path d="M176.57 56.6245C176.078 57.624 175.585 58.6234 175.093 59.6218C174.892 60.0295 175.502 60.3883 175.703 59.9796C176.196 58.9801 176.688 57.9807 177.18 56.9823C177.381 56.5746 176.771 56.2158 176.57 56.6245Z" fill="black"/>
<path d="M135.161 98.3223C133.418 97.611 120.345 92.2716 119.712 92.0168C117.431 91.0964 115.704 91.7505 113.888 92.8633C113.285 93.2315 112.671 93.582 112.071 93.9543C108.372 96.5668 104.396 98.7643 100.215 100.506C99.9583 100.61 99.8335 101 100.131 101.153C100.131 101.153 112.751 107.705 114.067 108.329C114.311 108.446 114.526 108.312 114.759 108.216C125.495 103.8 127.239 98.9214 132.744 98.9411C133.477 98.9411 134.319 98.9546 135.069 99.0233C135.503 99.0576 135.497 98.4596 135.161 98.3223Z" fill="white"/>
<path d="M154.454 93.27C140.111 88.565 140.772 88.7564 140.622 88.7491C134.07 88.9633 135.132 88.2395 129.806 88.1043C126.983 88.0325 122.201 88.8417 121.051 91.4021C121.028 91.4926 121.041 91.5883 121.088 91.6694C121.133 91.7505 121.209 91.8109 121.299 91.8379L136.336 97.7659C136.396 97.7836 136.46 97.7846 136.521 97.768C136.582 97.7524 136.637 97.7191 136.68 97.6744C138.062 96.2745 139.719 95.1763 141.547 94.4504C142.791 94.1009 144.075 93.9044 145.366 93.8669C148.366 93.7401 151.369 93.7713 154.365 93.9605C154.773 93.9897 154.819 93.3896 154.454 93.27Z" fill="white"/>
<path d="M154.274 95.505C153.039 95.7192 151.781 95.7785 150.53 95.6838C149.329 95.6225 148.138 95.7057 146.939 95.7587C144.566 95.8627 142.013 95.9667 139.957 97.2938C138.856 98.0093 137.926 98.9567 137.231 100.07C135.539 100.14 133.854 100.341 132.192 100.67C130.61 101.009 129.091 101.589 127.686 102.391C123.142 104.936 122.345 106.794 114.188 109.69L100.231 102.053C99.8313 101.833 99.4745 102.444 99.8739 102.663C114.986 110.933 114.067 110.492 114.254 110.419C117.464 109.361 120.524 107.892 123.357 106.051C128.22 102.777 130.051 101.047 137.424 100.764C137.484 100.759 137.544 100.74 137.597 100.71C137.65 100.68 137.695 100.638 137.73 100.588C139.875 97.1014 142.826 96.6032 146.89 96.4701C148.074 96.4306 149.246 96.3307 150.426 96.39C151.773 96.4888 153.126 96.4212 154.456 96.1882C154.909 96.104 154.72 95.4166 154.274 95.505Z" fill="#B999BE"/>
<path d="M154.266 97.7867C151.864 98.394 149.384 98.0259 146.944 98.1517C144.744 98.2661 142.376 98.3379 140.475 99.5693C139.417 100.272 138.477 101.139 137.692 102.138C135.912 102.371 134.104 102.531 132.345 102.889C125.793 104.223 123.15 109.468 114.412 111.504L100.151 103.872C99.7499 103.656 99.3922 104.267 99.7946 104.482C115.164 112.709 114.214 112.258 114.459 112.223C123.292 110.101 126.054 105.156 131.723 103.754C134.115 103.161 137.918 102.974 138.155 102.68C138.862 101.804 139.676 101.019 140.576 100.345C141.49 99.7471 142.521 99.3498 143.599 99.1772C148.934 98.3452 150.709 99.3706 154.454 98.4689C154.544 98.444 154.621 98.3836 154.668 98.3025C154.714 98.2204 154.726 98.1247 154.701 98.0342C154.676 97.9437 154.616 97.8668 154.535 97.82C154.453 97.7742 154.356 97.7617 154.266 97.7867Z" fill="#B999BE"/>
<path d="M44.2811 32.6858C44.3505 31.4211 44.4197 30.1565 44.4891 28.8919C44.5141 28.4374 43.8069 28.4384 43.7819 28.8919C43.7125 30.1565 43.6433 31.4211 43.5739 32.6858C43.5489 33.1413 44.2561 33.1392 44.2811 32.6858Z" fill="black"/>
<path d="M46.1232 32.872L50.8281 29.0822C51.1817 28.7962 50.6794 28.2991 50.3279 28.582L45.624 32.3718C45.2693 32.664 45.7727 33.158 46.1232 32.872Z" fill="black"/>
<path d="M50.7094 33.0706C49.3179 33.4086 47.9295 33.757 46.539 34.1002C46.4943 34.1126 46.4523 34.1336 46.4156 34.1622C46.379 34.1908 46.3484 34.2263 46.3254 34.2667C46.3025 34.3071 46.2877 34.3516 46.282 34.3978C46.2763 34.4438 46.2796 34.4906 46.292 34.5355C46.3044 34.5803 46.3255 34.6222 46.354 34.6588C46.3826 34.6955 46.418 34.7262 46.4585 34.7491C46.499 34.7721 46.5435 34.7868 46.5895 34.7925C46.6357 34.7983 46.6825 34.7948 46.7272 34.7825C48.1188 34.4455 49.5082 34.0961 50.8976 33.7529C50.9881 33.7279 51.065 33.668 51.1114 33.5864C51.1576 33.5048 51.1696 33.4081 51.1446 33.3176C51.1197 33.2271 51.0599 33.1503 50.9782 33.104C50.8966 33.0576 50.7999 33.0457 50.7094 33.0706Z" fill="black"/>
<path d="M141.868 56.0213C142.208 56.3229 142.709 55.8258 142.369 55.5211C139.298 52.7692 136.956 49.3009 135.548 45.4247C135.396 44.9994 134.716 45.1824 134.866 45.613C136.296 49.6121 138.703 53.1901 141.868 56.0213Z" fill="black"/>
<path d="M143.779 54.1108C144.118 54.4135 144.619 53.9153 144.279 53.6116C141.204 50.864 138.859 47.3943 137.458 43.5153C137.305 43.09 136.626 43.273 136.775 43.7025C138.205 47.7018 140.613 51.28 143.779 54.1108Z" fill="black"/>
<path d="M117.751 102.272C119.706 100.988 121.703 99.7762 123.702 98.5511C123.783 98.5033 123.841 98.4263 123.865 98.3348C123.889 98.2443 123.876 98.1476 123.829 98.0675C123.781 97.9864 123.703 97.9271 123.613 97.9032C123.522 97.8803 123.425 97.8928 123.344 97.9406C121.309 99.094 119.35 100.376 117.393 101.661C117.015 101.91 117.368 102.523 117.751 102.272Z" fill="black"/>
<path d="M94.1185 96.6635C91.9534 97.6036 89.6789 98.2671 87.3481 98.6395C84.6152 99.1023 81.8247 99.1127 79.0884 98.6696L79.0697 98.6624C76.682 98.29 74.3504 97.6203 72.1298 96.6666C72.0715 96.6344 72.0241 96.5865 71.9941 96.5272C71.964 96.468 71.9526 96.4004 71.9613 96.3348C71.958 96.3432 71.9559 96.3515 71.9551 96.3608C71.9774 98.7674 72.6789 101.119 73.9788 103.145C75.2787 105.171 77.1241 106.788 79.3027 107.811C86.72 111.012 94.2641 104.111 94.2932 96.4118C94.2841 96.4638 94.2637 96.5137 94.2335 96.5564C94.2034 96.6 94.1642 96.6364 94.1185 96.6635ZM76.0163 102.427C75.4885 101.707 75.0354 100.936 74.6643 100.124C74.4771 99.7076 75.0865 99.3529 75.2758 99.7668C75.6473 100.578 76.1002 101.35 76.6278 102.069C76.892 102.438 76.2773 102.79 76.0163 102.427Z" fill="#B999BE"/>
<path d="M115.968 101.315C118.055 100.151 120.128 98.9661 122.176 97.7305C122.255 97.6827 122.312 97.6047 122.334 97.5153C122.357 97.4258 122.344 97.3301 122.297 97.25C122.25 97.171 122.174 97.1117 122.085 97.0878C121.995 97.0629 121.901 97.0753 121.819 97.12C119.733 98.2848 117.659 99.4684 115.612 100.704C115.537 100.754 115.484 100.831 115.463 100.919C115.443 101.007 115.457 101.099 115.502 101.177C115.548 101.255 115.621 101.313 115.708 101.338C115.795 101.364 115.888 101.356 115.968 101.315Z" fill="black"/>
<path d="M94.1489 96.0832C93.4679 95.7587 92.7657 95.481 92.047 95.2512C85.5598 93.0069 78.4657 93.2877 72.1757 96.0364C72.1152 96.0613 72.0627 96.1029 72.0242 96.156C71.9858 96.209 71.9629 96.2714 71.958 96.3369C71.9532 96.4025 71.9666 96.468 71.9968 96.5262C72.0269 96.5845 72.0727 96.6333 72.129 96.6666C74.3499 97.6193 76.6813 98.29 79.0689 98.6624C78.9937 98.6343 78.93 98.5823 78.8882 98.5137C78.8463 98.445 78.8286 98.3649 78.838 98.2849C78.8473 98.2058 78.8832 98.1309 78.9398 98.0748C78.9964 98.0176 79.0704 97.9812 79.15 97.9718C80.2209 97.7628 81.2558 97.3988 82.2222 96.8923C83.6438 96.1269 85.1342 94.6896 86.873 94.8747C87.2716 94.9132 87.6563 95.0411 87.9984 95.2491C88.3406 95.4571 88.6314 95.74 88.849 96.0759C89.0279 96.4586 89.077 96.8892 88.9887 97.3021C88.9005 97.7149 88.6798 98.0883 88.3602 98.3639C88.3204 98.4138 88.2663 98.4502 88.2053 98.4679C90.2443 98.1278 92.2303 97.5236 94.1135 96.6708C94.165 96.6427 94.2084 96.6011 94.2398 96.5522C94.2711 96.5023 94.2894 96.4451 94.2929 96.3868C94.2964 96.3276 94.2851 96.2693 94.2599 96.2163C94.2348 96.1632 94.1965 96.1175 94.1489 96.0832Z" fill="#EAEAEA"/>
<path d="M87.9324 90.0855C87.5756 88.6981 86.2684 87.1568 84.6647 87.5739C84.3139 87.6602 84.0049 87.8682 83.7924 88.1594C83.5801 88.4516 83.4778 88.8104 83.504 89.1703C83.6028 90.256 84.8914 90.5795 86.312 91.6663C86.6762 91.9928 87.0184 92.3433 87.3364 92.7146C87.403 92.7801 87.4928 92.8176 87.5866 92.8176C87.6802 92.8176 87.77 92.7801 87.8367 92.7146C88.392 92.0241 88.1341 90.8697 87.9324 90.0855Z" fill="black"/>
<path d="M76.6209 102.069C76.0933 101.35 75.6403 100.578 75.2689 99.7669C75.0796 99.3509 74.4702 99.7128 74.6574 100.124C75.0281 100.936 75.4811 101.708 76.0094 102.427C76.2766 102.79 76.8913 102.438 76.6209 102.069Z" fill="white"/>
<path d="M124.749 109.511C124.793 110.889 124.837 112.266 124.879 113.643C124.894 114.096 125.601 114.098 125.586 113.643L125.456 109.511C125.443 109.057 124.735 109.055 124.749 109.511Z" fill="black"/>
<path d="M126.703 108.307C126.663 108.33 126.628 108.361 126.6 108.399C126.571 108.435 126.551 108.478 126.539 108.523C126.527 108.567 126.524 108.614 126.531 108.661C126.538 108.707 126.552 108.75 126.576 108.791C127.364 109.813 128.15 110.836 128.937 111.857C128.986 111.936 129.064 111.993 129.154 112.017C129.244 112.041 129.34 112.028 129.422 111.984C129.503 111.936 129.562 111.859 129.585 111.767C129.609 111.677 129.596 111.58 129.549 111.499L127.187 108.434C127.138 108.355 127.061 108.298 126.97 108.274C126.88 108.25 126.784 108.263 126.703 108.307Z" fill="black"/>
<path d="M132.05 108.688C132.141 108.713 132.237 108.7 132.319 108.655C132.401 108.608 132.461 108.531 132.486 108.44C132.511 108.35 132.498 108.254 132.453 108.172C132.406 108.091 132.329 108.031 132.238 108.006C130.886 107.601 129.525 107.201 128.156 106.842C128.066 106.817 127.969 106.83 127.888 106.875C127.806 106.922 127.747 106.999 127.722 107.089C127.697 107.18 127.709 107.277 127.756 107.358C127.802 107.44 127.879 107.499 127.969 107.524C129.324 107.931 130.681 108.33 132.05 108.688Z" fill="black"/>
<path d="M88.8538 96.0728C88.636 95.7369 88.3452 95.454 88.0031 95.246C87.661 95.038 87.2763 94.91 86.8778 94.8716C85.141 94.6864 83.6486 96.1196 82.2269 96.8892C81.2408 97.404 80.1854 97.7721 79.0934 97.9832C78.7814 98.0602 78.745 98.5854 79.0736 98.6592L79.0923 98.6665C81.8286 99.1095 84.6191 99.0992 87.352 98.6364C87.709 98.6322 88.0591 98.5376 88.3691 98.3608C88.688 98.0841 88.9078 97.7108 88.9953 97.2979C89.0829 96.885 89.0332 96.4544 88.8538 96.0728Z" fill="black"/>
<path d="M103.531 44.7925C103.475 44.3473 102.766 44.3421 102.824 44.7925C102.923 45.6802 103.093 46.5587 103.332 47.4195C103.357 47.51 103.416 47.5868 103.499 47.6333C103.58 47.6797 103.676 47.6919 103.767 47.667C103.857 47.6422 103.934 47.5825 103.981 47.5009C104.027 47.4194 104.039 47.3228 104.014 47.2323C103.798 46.431 103.636 45.6158 103.531 44.7925Z" fill="black"/>
<path d="M100.002 47.1917C99.6813 46.8673 99.1811 47.3675 99.5014 47.692L100.878 49.0866C101.199 49.4111 101.699 48.9109 101.38 48.5864L100.002 47.1917Z" fill="black"/>
<path d="M110.179 83.8424H107.111C107.021 83.8476 106.935 83.8871 106.873 83.9526C106.811 84.0182 106.776 84.1055 106.776 84.196C106.776 84.2875 106.811 84.3749 106.873 84.4404C106.935 84.5059 107.021 84.5454 107.111 84.5506H110.183C110.274 84.5454 110.359 84.5059 110.422 84.4404C110.484 84.3749 110.519 84.2875 110.519 84.196C110.519 84.1055 110.484 84.0182 110.422 83.9526C110.359 83.8871 110.274 83.8476 110.183 83.8424H110.179Z" fill="black"/>
<path d="M31.9424 33.184C32.2202 34.2026 32.7255 35.145 33.4202 35.94C36.0001 38.9232 39.6028 40.8334 43.5197 41.2949C44.8567 41.4249 46.2034 41.1804 47.4093 40.5888C47.4643 40.5589 47.5101 40.5148 47.5421 40.4611C47.574 40.4074 47.5908 40.346 47.5908 40.2835C47.5908 40.221 47.574 40.1597 47.5421 40.106C47.5101 40.0522 47.4643 40.0081 47.4093 39.9783C45.7255 39.1681 33.0708 33.0966 32.4613 32.7846C32.4004 32.7518 32.3313 32.7374 32.2623 32.743C32.1933 32.7486 32.1274 32.774 32.0726 32.8162C32.0178 32.8584 31.9763 32.9156 31.9532 32.9809C31.9301 33.0461 31.9264 33.1167 31.9424 33.184ZM46.3807 40.2664C42.0283 41.816 34.7483 37.8962 32.8794 33.7632L46.3807 40.2664Z" fill="black"/>
<path d="M11.4412 72.5688C11.4267 72.5074 11.3959 72.4513 11.3521 72.4065C11.3083 72.3618 11.2532 72.3296 11.1925 72.314C11.1319 72.2973 11.068 72.2984 11.0078 72.3161C10.9475 72.3337 10.8931 72.367 10.8504 72.4128L0.29649 85.211C0.249534 85.2609 0.218074 85.3244 0.205875 85.392C0.193665 85.4596 0.201237 85.5293 0.227663 85.5938C0.254089 85.6572 0.298269 85.7113 0.354918 85.7508C0.411566 85.7903 0.478293 85.8122 0.547131 85.8142C2.84241 85.8382 5.03577 84.3884 6.70083 82.9417C8.74329 81.2382 10.2946 79.0209 11.1947 76.5177C11.6408 75.2499 11.7261 73.8823 11.4412 72.5688ZM1.34689 85.0488L10.8796 73.4881C11.3434 78.06 5.83555 84.2095 1.34377 85.0446L1.34689 85.0488Z" fill="black"/>
<path d="M48.9917 58.56C47.3236 59.6406 46.0338 61.213 45.3017 63.0611C45.1333 63.4844 45.8217 63.6674 45.984 63.2493C46.6652 61.5791 47.8391 60.1564 49.3494 59.1705C49.7301 58.925 49.3765 58.3125 48.9917 58.56Z" fill="black"/>
<path d="M122.245 44.1716C123.926 42.5656 125.854 41.2391 127.954 40.2425C128.365 40.047 128.007 39.4365 127.598 39.631C125.444 40.6572 123.468 42.0212 121.745 43.6713C121.415 43.9865 121.916 44.4857 122.245 44.1716Z" fill="black"/>
<path d="M126.639 38.2207C124.426 39.1803 122.432 40.5814 120.778 42.338C120.466 42.6698 120.966 43.17 121.278 42.8383C122.895 41.131 124.841 39.768 126.998 38.8312C127.413 38.6512 127.053 38.0418 126.639 38.2207Z" fill="black"/>
<path d="M196.656 20.9713C197.293 23.0329 197.234 25.2472 196.486 27.2716C195.575 29.332 194.195 31.1513 192.457 32.5849C187.569 37.2171 183.297 42.4993 184.286 49.1886C184.92 53.5378 187.493 58.0067 185.888 62.3238C184.334 66.5035 179.145 67.1213 175.947 69.9771C173.79 71.9042 173.341 74.3878 174.036 76.0382C168.051 76.4896 162.098 77.2998 156.21 78.4666C158.527 76.6747 160.751 74.7663 162.873 72.7466C168.03 67.6163 171.894 61.3337 174.144 54.4156C174.812 52.3231 175.515 49.903 174.932 47.745C182.817 39.3366 184.702 37.3898 186.788 34.7378C189.844 30.844 192.327 26.3564 192.8 21.3488C193.093 18.9327 192.734 16.4821 191.76 14.2518C189.975 10.7481 185.49 8.68054 179.193 11.3232C173.152 13.892 168.32 19.3728 165.56 25.1552C160.331 35.7112 159.43 49.2052 156.348 56.8617C155.869 58.0109 155.459 59.1882 155.119 60.3862C154.923 60.9114 154.835 61.472 154.864 62.0315C154.892 62.5921 155.034 63.1402 155.282 63.6435C156.223 64.9612 158.52 64.5379 159.884 63.5562C158.366 68.9496 156.206 74.1413 153.449 79.0189C147.514 80.2315 142.103 81.5357 135.677 83.1425C135.228 82.5164 134.952 81.7832 134.874 81.0178C134.797 80.2513 134.92 79.4775 135.235 78.7745C136.171 76.813 137.882 76.605 138.251 75.1137C139.384 74.5552 140.578 74.1288 141.808 73.8428C141.947 73.8106 142.092 73.8324 142.215 73.9042C142.499 74.0425 142.77 74.2058 143.026 74.3909C144.924 75.6805 145.418 76.3856 146.666 76.3045C147.173 76.3398 147.672 76.1745 148.056 75.8438C148.441 75.512 148.678 75.0419 148.717 74.5365C148.949 74.7102 149.179 74.8859 149.416 75.0565C149.752 75.2936 150.11 75.4954 150.507 75.2364C151.171 74.7903 150.673 74.1184 150.403 73.6972C150.739 73.7762 151.079 73.8376 151.422 73.8813C151.731 73.9489 152.051 73.9406 152.357 73.8594C152.663 73.7783 152.945 73.6244 153.179 73.4122C153.453 73.0888 153.632 72.6967 153.698 72.2776C153.762 71.8585 153.71 71.43 153.546 71.039C153.196 70.2163 152.746 69.4394 152.207 68.726C149.616 64.878 146.209 61.4949 141.741 60.3904L140.14 57.963C140.154 57.859 140.14 57.9079 139.864 54.0235C140.496 54.7288 141.167 55.3983 141.873 56.0286C142.212 56.3302 142.714 55.8321 142.373 55.5284C141.444 54.6933 140.58 53.7893 139.788 52.8244C139.734 52.0496 139.565 49.6378 139.535 49.2073C140.733 51.0203 142.161 52.67 143.783 54.115C144.121 54.4177 144.624 53.9185 144.284 53.6148C142.372 51.9078 140.735 49.916 139.431 47.7097C139.112 43.1274 138.694 41.4697 142.18 38.1978C144.967 35.5853 146.719 33.8173 148.212 31.1934C149.183 31.3696 150.184 31.2717 151.102 30.9108C152.021 30.5498 152.82 29.94 153.412 29.1498C155.778 25.983 155.141 20.9286 150.05 17.7098C149.629 17.4393 149.183 17.2101 148.718 17.0255C147.618 11.9992 147.96 9.04662 151.74 5.5075C153.791 3.61127 156.077 1.98658 158.543 0.673579C158.943 0.457259 158.587 -0.158423 158.186 0.0630972C156.17 1.15 154.267 2.43493 152.504 3.89862C147.81 7.79758 146.697 10.7928 147.943 16.7821C147.206 16.576 146.418 16.6502 145.732 16.9902C145.046 17.3303 144.51 17.9123 144.227 18.624C142.599 22.4824 143.583 29.4909 147.515 30.9896C144.615 36.0398 140.12 37.9981 138.906 41.5497C138.48 43.0623 138.383 44.6481 138.618 46.2017C138.18 45.33 137.795 44.433 137.464 43.5153C137.311 43.091 136.632 43.2741 136.782 43.7036C137.305 45.1596 137.96 46.5652 138.737 47.9031L139.014 51.8395C137.549 49.885 136.384 47.7235 135.555 45.4258C135.402 45.0005 134.723 45.1835 134.873 45.6141C135.847 48.3338 137.275 50.8688 139.096 53.1114C139.146 53.803 139.343 56.5601 139.357 56.767C138.85 55.9995 129.132 41.3282 129.132 41.3282C129.083 41.2489 129.005 41.1915 128.914 41.168C128.824 41.1446 128.728 41.1568 128.647 41.2024C126.52 42.3762 124.5 43.7333 122.608 45.2584C122.543 45.3256 122.507 45.4152 122.507 45.5085C122.507 45.6018 122.543 45.6915 122.608 45.7586C126.313 50.5426 130.558 55.7582 134.725 60.5381C131.557 61.1943 124.087 63.2244 120.978 64.0886C120.085 59.3036 118.672 54.6304 116.762 50.1526C116.446 49.3853 115.906 48.7309 115.214 48.2744C113.954 47.6057 113.008 47.8324 111.325 47.6556C111.501 47.3561 111.675 47.0555 111.845 46.7518C112.337 46.8722 112.852 46.8669 113.34 46.7366C113.83 46.6064 114.279 46.3554 114.647 46.0066C115.014 45.6576 115.287 45.2222 115.442 44.7401C115.597 44.2579 115.628 43.7446 115.534 43.247C115.34 42.4734 114.939 41.7675 114.372 41.2066C114.695 40.2936 114.965 39.3635 115.183 38.4204C115.519 37.2686 115.613 36.0594 115.456 34.8698C115.217 33.7115 114.679 32.6358 113.896 31.7498C113.287 31.0454 112.546 30.4696 111.712 30.056C110.879 29.6424 109.971 29.3994 109.042 29.3413C108.113 29.2832 107.183 29.4111 106.304 29.7176C105.426 30.0239 104.617 30.5028 103.926 31.1258C103.909 29.6857 103.704 28.2541 103.316 26.867C101.175 20.5667 88.4907 17.7379 81.2367 26.1307C79.0279 28.7037 77.3586 31.6943 76.3279 34.9249C70.7338 30.6537 63.6316 33.8444 63.3747 39.7433C63.35 41.0691 63.7429 42.3691 64.4979 43.4592C63.2878 43.351 62.0682 43.4894 60.9131 43.8658C59.8303 44.2392 58.9382 45.0238 58.4295 46.0498C57.4395 48.4418 59.3437 50.786 61.796 51.5327C59.2272 52.8431 51.812 56.7109 50.668 57.3151C49.3337 53.7791 47.7747 50.3305 46.1357 46.9255C45.5311 45.3129 44.5735 43.8559 43.3329 42.6615C42.4206 41.926 41.2807 41.531 40.1089 41.5446C37.4215 41.557 35.6931 43.8253 34.6343 46.0384C31.7589 53.1582 30.1464 60.7253 29.8691 68.3984C24.7231 71.1492 19.6407 74.029 14.397 76.5884C13.8583 76.8359 13.3413 77.1292 12.8515 77.4631C12.0385 78.0735 11.438 78.9232 11.1351 79.8935C10.8322 80.8638 10.8423 81.9049 11.1637 82.869C11.4853 83.833 12.102 84.6723 12.9266 85.2662C13.7512 85.861 14.7418 86.1803 15.7583 86.1803C17.3911 86.1938 100.233 86.1803 102.182 86.1803C108.802 88.0014 114.631 86.2843 117.741 83.2444C124.772 81.7531 130.741 78.5883 137.229 75.5703C136.821 75.9925 136.375 76.3783 135.898 76.7226C134.971 77.5296 134.367 78.6434 134.196 79.8603C134.024 81.076 134.295 82.3136 134.962 83.3463C134.474 83.5096 134.047 83.8164 133.737 84.2272C133.428 84.638 133.25 85.133 133.227 85.6468C133.228 85.7404 133.266 85.8298 133.331 85.8954C133.397 85.9619 133.486 85.9994 133.58 86.0004H176.776C176.87 85.9994 176.958 85.9609 177.025 85.8954C177.09 85.8298 177.129 85.7404 177.13 85.6468C177.065 78.4562 177.084 78.8421 177.02 78.3304C176.91 77.7917 176.649 77.2966 176.267 76.9025C175.884 76.5083 175.396 76.2317 174.862 76.1069C173.91 74.3836 174.709 72.2506 175.991 70.9204C179.898 66.8644 188.316 67.2201 186.949 57.3484C186.013 50.6394 180.525 44.9724 192.349 33.6666C194.095 32.2228 195.573 30.4835 196.717 28.5279C197.904 26.1219 198.128 23.3534 197.341 20.7882C197.202 20.3504 196.52 20.5355 196.656 20.9713ZM144.76 26.5977C144.067 24.4537 143.977 22.1604 144.5 19.9687C144.574 19.4635 144.763 18.9821 145.053 18.5617C145.342 18.1413 145.725 17.7932 146.171 17.5445C148.875 16.7353 152.356 20.0841 153.475 22.4813C153.82 23.2722 154.007 24.1234 154.022 24.9862C154.039 25.8491 153.885 26.7066 153.569 27.5097C153.196 28.4207 152.561 29.1997 151.743 29.747C150.925 30.2941 149.962 30.5845 148.978 30.5809C146.736 30.4665 145.384 28.5643 144.76 26.5977ZM151.846 69.455C152.386 70.1435 152.775 70.936 152.99 71.7836C153.129 72.6998 152.659 73.4081 151.001 73.0971C150.606 73.0202 150.215 72.9182 149.831 72.7945C149.573 72.3889 149.318 71.9822 149.057 71.5787C149.343 71.3707 149.556 71.0774 149.666 70.7415C149.776 70.4056 149.776 70.0426 149.667 69.7067C149.367 68.855 148.916 68.0646 148.334 67.374C147.264 65.8473 146.036 64.437 144.672 63.1662C144.34 62.8542 143.84 63.3554 144.171 63.6664C145.955 65.3138 147.491 67.2097 148.733 69.2959C149.01 69.8024 149.195 70.6552 148.591 71.0223C148.591 71.0223 142.601 61.6987 142.337 61.3004C146.424 62.6316 149.468 65.8244 151.843 69.455H151.846ZM123.35 45.5735C125.036 44.23 126.829 43.0279 128.713 41.9793C129.657 43.3999 147.027 69.6662 149.831 73.9426C150.344 74.7237 150.161 74.8662 149.432 74.3306C148.35 73.5339 145.064 70.5023 143.803 69.2606C144.137 69.0598 144.379 68.7374 144.478 68.361C144.518 68.0677 144.496 67.7702 144.416 67.4853C144.335 67.2003 144.197 66.9351 144.01 66.7063C143.333 65.8442 142.429 65.1879 141.399 64.8135C140.532 64.4537 139.636 64.1718 138.719 63.9732C137.943 63.3201 129.987 54.1348 123.348 45.5735H123.35ZM114.015 45.5953C113.431 45.9895 112.726 46.1618 112.025 46.0815C111.325 46.001 110.677 45.6729 110.198 45.1565C109.873 44.7499 109.678 44.2552 109.637 43.7365C109.596 43.2177 109.713 42.6987 109.97 42.2467C110.228 41.7946 110.616 41.4301 111.083 41.2006C111.55 40.9711 112.074 40.8869 112.59 40.959C114.721 41.6173 115.744 44.4004 114.013 45.5953H114.015ZM58.9433 48.0269C58.4108 46.0582 60.2329 44.6115 61.9593 44.2974C63.0454 44.1135 64.1517 44.0809 65.2467 44.2007C65.316 44.199 65.3833 44.1773 65.4404 44.1382C65.4975 44.099 65.5421 44.0441 65.5686 43.9801C65.5951 43.9162 65.6025 43.8459 65.5899 43.7777C65.5772 43.7096 65.5451 43.6467 65.4974 43.5965C64.6478 42.6441 64.1439 41.4334 64.067 40.1596C63.9899 38.8858 64.3443 37.6231 65.0731 36.5754C65.8383 35.5147 66.8842 34.6885 68.0933 34.1897C69.3024 33.6909 70.6268 33.5393 71.9173 33.7518C73.5196 33.9925 75.0185 34.6901 76.2343 35.7611C76.3035 35.8262 76.3954 35.8615 76.4904 35.8593C76.5853 35.8572 76.6756 35.8178 76.7419 35.7497C77.0091 35.471 79.502 25.4433 87.6265 22.4761C92.1765 20.8589 97.7072 21.4434 101.153 24.7756C103.129 26.6829 103.103 29.0864 103.246 31.9391C103.248 32.0082 103.27 32.0751 103.31 32.1319C103.349 32.1888 103.403 32.2331 103.468 32.2596C103.531 32.286 103.601 32.2935 103.67 32.2812C103.737 32.2688 103.801 32.2371 103.85 32.1897C107.942 27.4421 116.018 31.0343 114.666 37.3897C114.445 38.518 114.148 39.6299 113.775 40.7178C113.571 40.5775 113.352 40.461 113.122 40.3704C112.298 40.1056 111.404 40.1786 110.634 40.5735C109.866 40.9684 109.284 41.6527 109.019 42.4759C108.755 43.299 108.828 44.1937 109.223 44.963C109.617 45.7324 110.302 46.3134 111.125 46.5781C110.945 46.8971 110.761 47.2136 110.573 47.5277C109.982 47.4092 109.428 47.1515 108.957 46.7758C108.707 46.529 108.51 46.2341 108.377 45.909C108.243 45.5839 108.177 45.2353 108.182 44.884C108.182 42.2154 108.478 41.6985 108.166 39.9086C108.128 39.4848 107.995 39.0751 107.778 38.7095C107.559 38.344 107.263 38.032 106.908 37.7964C105.556 37.0902 104.48 38.2706 103.777 39.4978C103.761 39.1114 103.638 38.7368 103.423 38.4154C103.208 38.094 102.908 37.8384 102.557 37.6768C102.186 37.5573 101.787 37.5675 101.423 37.7057C101.06 37.8439 100.754 38.1018 100.557 38.437C99.9224 39.3273 99.4711 40.3343 99.2277 41.4C92.5478 39.6517 86.028 41.0266 79.5363 43.4082C73.7717 45.6077 68.15 48.1649 62.7039 51.0647C61.0691 50.6165 59.4165 49.7772 58.9433 48.0269ZM71.6989 85.4669C50.0295 85.4669 41.6907 85.4752 40.9367 85.4523C38.4163 85.3078 36.0531 84.1804 34.3546 82.3126C31.9127 79.5774 30.3703 75.8646 30.7489 69.6641C30.777 69.2096 30.0698 69.2117 30.0417 69.6641C29.7657 72.7903 30.2041 75.9394 31.324 78.8712C32.491 81.8217 34.7759 84.1918 37.6815 85.4669H16.0495C15.2893 85.5189 14.5294 85.3608 13.8532 85.0093C13.177 84.6588 12.6105 84.1274 12.216 83.4763C11.8214 82.8242 11.6141 82.0765 11.6166 81.3142C11.6192 80.5518 11.8317 79.8051 12.2307 79.1562C12.9093 78.1983 13.8665 77.4714 14.9721 77.0762C16.1047 76.4896 29.0121 69.6849 30.388 68.9132C30.4419 68.882 30.4865 68.8383 30.5174 68.7842C30.5483 68.7302 30.5643 68.6698 30.5638 68.6074C30.7317 62.7626 31.7028 56.9678 33.4498 51.3871C34.4596 47.979 35.9312 43.1056 39.228 42.3391C40.2518 42.1108 41.3236 42.2624 42.244 42.7655C43.5064 43.6162 44.4768 44.8343 45.0239 46.2547C50.6306 57.7821 49.8683 58.3593 50.5869 58.145C50.6909 58.1128 62.3243 52.0153 66.2015 50.085C70.0235 57.6427 71.4129 66.5306 71.8383 75.0222C72.0285 78.5041 71.9819 81.9943 71.6989 85.469V85.4669ZM73.6167 85.4669C73.236 85.4669 72.8346 85.4357 72.4467 85.4471C73.314 74.3888 72.0171 59.9338 66.8504 49.7606C74.1304 46.1601 83.3354 41.9689 91.0554 41.3917C93.7502 41.1767 96.462 41.4111 99.08 42.0853C98.9833 42.6347 98.9357 43.1916 98.9375 43.7494C97.5512 43.1389 95.9423 42.5627 94.4853 43.1368C93.8542 43.3582 93.3174 43.7877 92.9627 44.3547C92.6082 44.9217 92.4571 45.5925 92.5342 46.2568C92.9877 48.3586 95.9028 48.0248 97.2142 48.2827C97.8222 48.4208 98.3931 48.6891 98.8876 49.069C100.865 50.5075 102.39 52.4808 103.284 54.7567C104.719 58.5642 105.211 62.6628 104.716 66.7011C103.048 65.0163 101.792 62.9675 101.05 60.7159C100.148 57.8476 99.5698 54.888 99.3244 51.8915C99.288 51.4412 98.5808 51.437 98.6172 51.8915C98.875 54.8365 99.4305 57.7478 100.275 60.5807C98.2938 61.238 85.949 65.3959 84.8715 65.7339C83.5953 62.4142 82.742 58.9469 82.3318 55.414C82.285 54.9658 81.5779 54.9616 81.6246 55.414C83.0557 68.0864 90.5239 79.6044 96.7608 83.6854C97.8365 84.3863 98.9779 84.9802 100.169 85.4596L73.6167 85.4669ZM99.1923 84.2646C96.173 82.7411 93.5667 80.5102 91.5951 77.7626C88.8809 74.3212 86.7 70.4909 85.1253 66.4006C87.9905 65.4926 84.5845 66.5659 100.503 61.2578C101.346 63.7226 102.801 65.9336 104.73 67.6839C104.909 67.8316 105.28 67.817 105.322 67.5279C105.898 63.6706 105.61 59.7321 104.48 55.9995C103.184 51.6534 100.091 48.5698 97.9963 47.7679C96.2949 47.1158 93.6502 47.9322 93.2123 46.0405C93.185 45.7138 93.2369 45.3853 93.3635 45.0829C93.4903 44.7805 93.6881 44.5132 93.9403 44.3037C95.3963 42.9423 97.5928 43.9095 99.1247 44.6063C99.1788 44.6363 99.2391 44.6518 99.3015 44.6513C99.3629 44.6508 99.4232 44.6345 99.4773 44.6037C99.5303 44.5729 99.5751 44.5288 99.6062 44.4757C99.6375 44.4225 99.6551 44.3622 99.6562 44.3006C99.4866 42.217 100.123 40.1478 101.435 38.5202C101.553 38.4214 101.695 38.354 101.846 38.3242C101.998 38.2943 102.154 38.3031 102.302 38.3494C102.449 38.3957 102.582 38.4783 102.689 38.5896C102.796 38.7009 102.874 38.8372 102.914 38.9862C103.131 39.6209 103.198 40.2971 103.112 40.9622C103.079 41.3938 103.668 41.3948 103.807 41.0557C104.175 40.1499 105.367 37.5333 106.719 38.514C107.759 39.268 107.65 41.634 107.532 42.9142C107.405 44.2933 107.233 46.1091 108.334 47.1782C109.495 48.1059 110.963 48.5596 112.445 48.4481C113.147 48.4179 113.849 48.5115 114.519 48.7247C115.274 49.085 115.858 49.7273 116.145 50.5135C118.864 56.6381 121.27 65.7682 120.963 72.9234C120.893 75.0346 120.462 77.1178 119.689 79.0823C116.605 86.7357 106.482 87.862 99.1923 84.2667V84.2646ZM118.568 82.3334C122.268 77.8021 122.074 70.6219 121.096 64.7782C122.656 64.3362 132.656 61.6582 135.253 61.1506C135.536 61.472 137.569 63.761 137.668 63.8682C135.83 63.4522 133.986 63.0726 132.134 62.7304C131.689 62.6493 131.498 63.3305 131.946 63.4126C138.76 64.67 140.272 64.8166 142.41 66.1374C144.074 67.192 144.954 68.804 141.25 69.0255C138.603 69.1846 135.946 69.0858 133.318 68.7322C133.227 68.7094 133.132 68.7229 133.051 68.7686C132.969 68.8144 132.909 68.8893 132.882 68.9787C132.857 69.0692 132.87 69.1659 132.915 69.247C132.961 69.3282 133.038 69.3885 133.129 69.4134C136.424 69.8669 139.763 69.9251 143.073 69.5871L143.108 69.5757C144.648 71.1222 146.27 72.5834 147.967 73.9551C148.07 74.2245 148.071 74.5209 147.971 74.7913C147.871 75.0606 147.675 75.2842 147.421 75.4205C146.946 75.6378 146.406 75.6701 145.908 75.5089C144.874 75.0024 143.074 73.2614 142.008 73.1169C139.033 73.1429 128.388 80.0298 118.568 82.3354V82.3334ZM156.759 63.7257C156.565 63.7132 156.377 63.6539 156.21 63.553C156.044 63.4522 155.904 63.3138 155.802 63.1474C155.613 62.7491 155.542 62.3061 155.594 61.8693C155.864 59.288 156.842 57.9828 157.734 55.0167C160.297 46.5199 161.327 37.5198 164.558 29.1873C167.546 21.0867 174.178 12.5899 182.572 11.0164C183.687 10.7604 184.843 10.7329 185.969 10.9354C187.095 11.1379 188.169 11.5662 189.124 12.1947C191.087 13.5124 191.828 15.8721 192.073 18.131C192.593 22.9577 190.76 27.699 188.138 31.6666C185.33 35.9181 182.159 38.9934 174.665 46.9931C174.292 46.1428 173.61 45.4659 172.757 45.0991C171.904 44.7323 170.943 44.703 170.069 45.0171C167.688 45.7118 166.281 48.0778 165.167 50.1183C163.163 54.0122 161.53 58.0858 160.29 62.2863C159.852 62.7824 159.305 63.1703 158.694 63.4199C158.081 63.6706 157.419 63.7756 156.759 63.7278V63.7257ZM166.568 49.0991C167.148 48.0711 167.919 47.1621 168.837 46.4201C170.582 45.0379 173.205 45.2157 174.063 47.3561C174.413 48.3164 174.521 49.3487 174.375 50.3606C174.243 51.4361 174.008 52.4963 173.672 53.5264C171.601 60.2812 167.967 66.4526 163.064 71.5402C159.408 75.3113 157.76 76.1433 154.848 78.736L154.377 78.8306C160.618 67.8254 161.022 58.2262 166.568 49.1012V49.0991ZM176.355 78.6601C176.366 78.788 176.419 85.1819 176.42 85.2859C176.42 85.2859 134.442 85.2579 133.997 85.2703C134.084 84.949 134.256 84.6578 134.493 84.4238C134.933 84.0743 135.46 83.8528 136.018 83.7831C148.648 80.6392 161.186 77.6471 174.082 76.7392C174.636 76.7007 175.184 76.8806 175.608 77.2394C176.033 77.5982 176.301 78.1089 176.355 78.6622V78.6601Z" fill="black"/>
<path d="M153.552 41.5612C155.57 41.6891 156.822 38.7064 157.391 36.7605C157.7 35.8989 157.76 34.9678 157.566 34.0733C157.372 33.1787 156.93 32.3568 156.291 31.7009C156.014 31.4159 155.678 31.1936 155.306 31.0492C154.935 30.9047 154.537 30.8415 154.14 30.8636C153.741 30.8858 153.353 30.9929 153.001 31.1777C152.648 31.3625 152.338 31.6207 152.094 31.9349C151.12 33.4259 150.639 35.1844 150.717 36.9633C150.665 37.9265 150.84 38.8884 151.228 39.7713C151.424 40.2469 151.742 40.6625 152.151 40.9766C152.559 41.2907 153.041 41.4922 153.552 41.5612ZM151.425 36.9633C151.411 35.642 151.669 34.3319 152.184 33.1153C152.413 32.5427 152.836 32.0687 153.379 31.7758C155.188 30.8305 157.251 32.9926 156.922 35.5198C156.78 36.5266 156.475 37.5038 156.021 38.4131C155.717 39.2812 155.164 40.0406 154.432 40.5971C152.939 41.5331 151.233 39.6185 151.425 36.9633Z" fill="black"/>
<path d="M166.565 13.944C164.986 15.3168 164.791 18.3307 166.906 18.5262C168.899 18.7093 170.546 15.2575 169.127 13.8639C168.76 13.5723 168.3 13.4203 167.831 13.435C167.363 13.4497 166.914 13.63 166.565 13.944ZM166.906 17.819C165.39 17.6225 166.212 15.3334 166.844 14.6533C167.046 14.4122 167.322 14.2456 167.63 14.18C167.938 14.1144 168.258 14.1536 168.541 14.2913C169.482 14.9652 168.709 17.7535 166.912 17.818L166.906 17.819Z" fill="black"/>
<path d="M184.686 26.581C184.913 26.6255 185.147 26.6091 185.364 26.5332C185.582 26.4573 185.775 26.3248 185.925 26.1494C186.307 25.7714 186.628 25.338 186.88 24.864C187.124 24.4731 187.229 24.0113 187.178 23.5531C187.127 23.0951 186.922 22.6679 186.597 22.3409C186.333 22.1159 185.988 22.0052 185.642 22.0333C185.296 22.0614 184.975 22.2259 184.75 22.4907C183.587 23.8999 183.377 26.2243 184.686 26.581ZM184.506 24.7537C184.605 24.1637 184.828 23.601 185.157 23.1022C185.218 23.0056 185.297 22.9221 185.39 22.8563C185.483 22.7906 185.588 22.7441 185.699 22.7195C185.849 22.7213 185.994 22.7682 186.115 22.8539C186.237 22.9397 186.33 23.0603 186.382 23.2C186.765 24.0548 186.044 24.996 185.486 25.5857C185.278 25.8083 184.924 26.0776 184.679 25.7573C184.495 25.4572 184.434 25.0981 184.506 24.7537Z" fill="black"/>
<path d="M149.554 49.28C149.143 49.3199 148.761 49.5056 148.476 49.8036C148.191 50.1015 148.023 50.4918 148.002 50.9035C147.897 51.7384 148.05 52.5856 148.441 53.3308C148.527 53.5063 148.654 53.6589 148.81 53.7766C148.966 53.8942 149.148 53.9734 149.34 54.0079C149.565 53.9993 149.785 53.9334 149.977 53.8161C150.169 53.6989 150.328 53.5342 150.439 53.3381C150.869 52.5996 151.031 51.7342 150.895 50.8899C150.791 50.1723 150.431 49.2083 149.554 49.28ZM149.439 53.3027C149.294 53.335 149.11 53.0947 149.041 52.9543C148.755 52.3995 148.63 51.7752 148.683 51.1531C148.66 50.8916 148.732 50.6307 148.886 50.418C149.04 50.2052 149.265 50.0549 149.52 49.9945C149.598 49.9769 149.679 49.9845 149.752 50.0161C149.826 50.0476 149.887 50.1016 149.928 50.1703C150.659 51.3652 149.969 53.2455 149.439 53.3027Z" fill="black"/>
<path d="M169.344 68.7988L167.287 72.5293C167.068 72.9286 167.678 73.2853 167.898 72.887L169.955 69.1565C170.174 68.7572 169.564 68.3994 169.344 68.7988Z" fill="black"/>
<path d="M167.147 54.6766C167.653 53.6565 168.258 52.6876 168.95 51.7833C169.227 51.4224 168.613 51.0699 168.34 51.4266C167.647 52.3311 167.043 53.2999 166.535 54.3199C166.334 54.7265 166.944 55.0843 167.147 54.6766Z" fill="black"/>
<path d="M176.281 40.0854C177.009 38.745 177.636 37.3524 178.158 35.9192C178.314 35.4907 177.629 35.3066 177.474 35.731C176.973 37.1065 176.37 38.4427 175.67 39.7287C175.453 40.1281 176.063 40.4858 176.281 40.0854Z" fill="black"/>
<path d="M174.849 29.0073C175.527 27.9093 176.105 26.7527 176.577 25.5514C176.743 25.1281 176.057 24.944 175.894 25.3632C175.442 26.5062 174.888 27.6064 174.239 28.6506C173.998 29.0385 174.608 29.3942 174.849 29.0073Z" fill="black"/>
<path d="M181.701 20.5646C182.265 19.556 182.94 18.6141 183.714 17.7566C184.017 17.4197 183.519 16.9184 183.213 17.2564C182.397 18.1582 181.686 19.1489 181.091 20.21C181.05 20.2905 181.042 20.3836 181.067 20.4701C181.093 20.5566 181.151 20.63 181.229 20.6754C181.307 20.7207 181.4 20.7344 181.487 20.7139C181.575 20.6933 181.651 20.6399 181.701 20.5646Z" fill="black"/>
<path d="M172.095 22.992C172.661 22.1101 173.226 21.2289 173.793 20.3483C174.041 19.9645 173.428 19.6099 173.183 19.9916C172.617 20.8721 172.05 21.753 171.483 22.6342C171.237 23.0201 171.848 23.3757 172.095 22.992Z" fill="black"/>
<path d="M176.57 56.6245L175.093 59.6218C174.892 60.0295 175.502 60.3883 175.703 59.9796C176.196 58.9801 176.688 57.9807 177.18 56.9823C177.381 56.5746 176.771 56.2158 176.57 56.6245Z" fill="black"/>
<path d="M115.685 91.9346C115.058 92.1873 114.456 92.4983 113.886 92.8633C113.284 93.2315 112.67 93.582 112.069 93.9543C108.37 96.5678 104.394 98.7643 100.213 100.506C99.9563 100.61 99.8315 101 100.129 101.153C100.129 101.153 112.75 107.705 114.065 108.329C114.309 108.446 114.524 108.312 114.757 108.216C125.408 103.837 127.251 98.9213 132.742 98.9411C133.47 98.9411 134.328 98.9546 135.067 99.0233C135.498 99.0628 135.497 98.4658 135.16 98.3285L119.711 92.023C118.428 91.4926 116.992 91.4614 115.685 91.9346ZM132.479 98.2339C127.162 98.2921 124.462 103.538 114.285 107.641L101.139 100.873C108.059 97.9864 109.599 96.0894 115.09 92.9819C115.76 92.6033 116.507 92.3818 117.275 92.3329C118.043 92.2841 118.812 92.4089 119.524 92.699L133.083 98.2329C132.882 98.2339 132.68 98.2277 132.479 98.2339Z" fill="black"/>
<path d="M124.513 88.851C123.074 89.2275 121.833 90.1406 121.046 91.4021C121.023 91.4926 121.037 91.5883 121.082 91.6694C121.128 91.7506 121.204 91.8109 121.294 91.8379L136.331 97.7659C136.391 97.7836 136.456 97.7846 136.516 97.768C136.576 97.7524 136.632 97.7191 136.675 97.6744C138.056 96.2735 139.714 95.1763 141.542 94.4504C142.787 94.0999 144.07 93.9044 145.362 93.867C148.362 93.7401 151.365 93.7713 154.36 93.9605C154.776 93.9855 154.819 93.3854 154.454 93.2658C139.971 88.5151 140.719 88.7242 140.542 88.7481C133.932 89.0902 130.278 87.056 124.513 88.851ZM134.256 89.1942C136.348 89.4719 138.46 89.5603 140.567 89.4584L151.774 93.1338C149.712 93.061 147.645 93.0526 145.587 93.1525C144.225 93.1816 142.869 93.3688 141.55 93.7109C139.598 94.4285 137.821 95.5538 136.338 97.0129L121.902 91.32C122.579 90.5234 123.466 89.9326 124.462 89.6154C127.611 88.4673 131.005 88.7918 134.256 89.1942Z" fill="black"/>
<path d="M99.877 102.663C114.987 110.929 114.07 110.492 114.257 110.419C117.125 109.461 119.879 108.189 122.468 106.626C125.351 104.816 128.123 102.447 131.636 101.53C133.59 101.123 135.569 100.856 137.559 100.728C137.975 100.553 139.139 97.4581 143.359 96.7873C144.529 96.6011 145.711 96.495 146.895 96.469C151.899 96.2485 152.362 96.6261 154.464 96.1882C154.908 96.0842 154.722 95.4176 154.276 95.506C153.041 95.7202 151.783 95.7805 150.532 95.6849C149.331 95.6235 148.14 95.7067 146.941 95.7597C144.568 95.8637 142.024 95.9792 139.959 97.2948C138.861 98.0134 137.932 98.9609 137.233 100.071C135.542 100.152 133.857 100.352 132.194 100.671C130.614 101.017 129.096 101.597 127.688 102.392C123.103 104.94 122.296 106.814 114.19 109.691L100.233 102.054C99.8312 101.833 99.4766 102.448 99.877 102.663Z" fill="black"/>
<path d="M99.7946 104.482C114.667 112.439 114.211 112.258 114.459 112.222C123.253 110.11 126.026 105.225 131.723 103.754C134.843 103.017 137.878 103.007 138.155 102.68C139.737 100.808 141.177 99.5744 143.599 99.1772C148.729 98.4242 151.078 99.3248 154.454 98.4689C154.544 98.444 154.621 98.3836 154.668 98.3025C154.714 98.2204 154.726 98.1236 154.701 98.0342C154.676 97.9437 154.616 97.8668 154.535 97.82C154.453 97.7742 154.356 97.7617 154.266 97.7867C151.684 98.4814 149.628 97.9312 145.479 98.2412C143.71 98.2724 141.976 98.7393 140.431 99.6005C139.401 100.311 138.478 101.166 137.692 102.138C135.912 102.372 134.106 102.542 132.345 102.889C125.468 104.335 123.272 109.441 114.412 111.504C113.044 110.776 101.561 104.626 100.151 103.872C99.7499 103.656 99.3922 104.268 99.7946 104.482Z" fill="black"/>
<path d="M43.7838 28.8919C43.7146 30.1565 43.6452 31.4211 43.5758 32.6858C43.5509 33.1413 44.2581 33.1392 44.283 32.6858C44.3524 31.4211 44.4218 30.1565 44.491 28.8919C44.516 28.4374 43.8088 28.4384 43.7838 28.8919Z" fill="black"/>
<path d="M46.1237 32.872L50.8276 29.0822C51.1812 28.7962 50.6789 28.2991 50.3273 28.582L45.6234 32.3718C45.2677 32.664 45.7721 33.158 46.1237 32.872Z" fill="black"/>
<path d="M51.1296 33.3098C51.1029 33.2251 51.0453 33.1535 50.9682 33.1092C50.8913 33.0649 50.8004 33.0511 50.7136 33.0706L46.5443 34.1002C46.4538 34.1251 46.3769 34.1848 46.3306 34.2663C46.2841 34.3478 46.272 34.4445 46.2968 34.5349C46.3216 34.6254 46.3814 34.7023 46.4628 34.7488C46.5444 34.7951 46.641 34.8073 46.7315 34.7825L50.9019 33.7529C50.9908 33.7243 51.0647 33.6615 51.1075 33.5784C51.1501 33.4954 51.1581 33.3987 51.1296 33.3098Z" fill="black"/>
<path d="M117.751 102.272C119.707 100.988 121.692 99.7471 123.702 98.5511C123.781 98.5012 123.837 98.4211 123.858 98.3296C123.879 98.2381 123.862 98.1413 123.812 98.0623C123.765 97.9864 123.689 97.9313 123.603 97.9084C123.516 97.8855 123.424 97.8969 123.345 97.9406C121.31 99.095 119.349 100.376 117.393 101.661C117.015 101.91 117.369 102.523 117.751 102.272Z" fill="black"/>
<path d="M115.502 101.193C115.55 101.269 115.624 101.324 115.711 101.347C115.798 101.368 115.89 101.358 115.969 101.315C118.038 100.12 120.129 98.965 122.176 97.7305C122.216 97.7056 122.25 97.6744 122.277 97.6359C122.304 97.5984 122.324 97.5548 122.335 97.51C122.345 97.4643 122.346 97.4175 122.338 97.3717C122.33 97.326 122.313 97.2823 122.288 97.2428C122.24 97.1668 122.165 97.1117 122.078 97.0888C121.991 97.0659 121.899 97.0774 121.82 97.12C119.75 98.315 117.66 99.4673 115.612 100.704C115.572 100.729 115.538 100.761 115.511 100.799C115.484 100.837 115.465 100.88 115.455 100.925C115.445 100.971 115.444 101.018 115.452 101.064C115.459 101.109 115.477 101.153 115.502 101.193Z" fill="black"/>
<path d="M72.187 96.0291C72.1202 96.0551 72.0626 96.0998 72.0213 96.1581C71.9801 96.2173 71.9571 96.286 71.9551 96.3577C71.9832 103.887 78.9813 110.519 86.1823 108.104C88.5597 107.189 90.6059 105.579 92.0533 103.484C93.5005 101.388 94.2817 98.9047 94.2943 96.3577C94.2927 96.3037 94.2789 96.2517 94.2538 96.2038C94.2288 96.156 94.1932 96.1144 94.1497 96.0832C93.4696 95.7577 92.7677 95.48 92.0489 95.2512C85.5658 93.0058 78.4747 93.2835 72.187 96.0291ZM86.7356 107.128C80.1836 110.04 73.1251 104.298 72.6872 96.8923C75.9964 98.263 79.5432 98.9692 83.1252 98.9692C86.7072 98.9692 90.254 98.263 93.5632 96.8923C93.4481 99.0545 92.7536 101.145 91.5523 102.946C90.351 104.746 88.6873 106.191 86.7356 107.128ZM80.9979 98.184C82.3503 97.6474 83.6359 96.9558 84.8292 96.1227C85.2022 95.8575 85.6335 95.6849 86.0869 95.6204C86.5402 95.5559 87.0024 95.6017 87.4344 95.7535C87.6488 95.8076 87.8438 95.921 87.9976 96.079C88.1513 96.2382 88.2578 96.4368 88.3049 96.6531C88.3521 96.8694 88.3382 97.0941 88.2648 97.3021C88.1912 97.5111 88.0611 97.6952 87.8889 97.8335C85.6164 98.2454 83.3004 98.3629 80.9979 98.184ZM93.0348 96.3588C91.69 96.8757 90.309 97.2927 88.9029 97.6068C89.5384 96.4191 88.4755 95.2148 87.2951 94.9298C85.578 94.467 83.9026 95.8388 82.5392 96.677C81.4858 97.2761 80.3465 97.7087 79.1612 97.9604C77.1325 97.6328 75.1434 97.0951 73.226 96.3557C79.5834 93.8077 86.6785 93.8087 93.0348 96.3598V96.3588Z" fill="black"/>
<path d="M67.9536 97.56C68.6771 97.0826 69.5286 96.8351 70.3955 96.8528C70.4771 96.832 70.5485 96.7821 70.5965 96.7124C70.6446 96.6438 70.6662 96.5595 70.6574 96.4753C70.6485 96.3921 70.6099 96.3141 70.5485 96.2559C70.487 96.1987 70.4069 96.1643 70.3227 96.1612C66.8709 96.1383 65.6167 98.9796 66.8012 100.566C67.3641 101.228 68.1364 101.677 68.99 101.84C69.8436 102.002 70.727 101.868 71.4937 101.459C71.864 101.273 71.5977 100.757 71.2431 100.819C70.4707 101.192 69.5912 101.276 68.7616 101.06C68.3682 100.976 68.0049 100.787 67.7116 100.513C67.4182 100.237 67.2058 99.8865 67.0977 99.4996C67.0575 99.1294 67.1154 98.756 67.2657 98.4149C67.416 98.0748 67.6532 97.7794 67.9536 97.56Z" fill="black"/>
<path d="M85.0987 90.8541C85.9585 91.3231 86.7184 91.9565 87.3358 92.7167C87.4023 92.7822 87.4922 92.8197 87.5858 92.8197C87.6795 92.8197 87.7694 92.7822 87.8359 92.7167C88.3923 92.0241 88.1272 90.8717 87.9317 90.0855C87.5646 88.7013 86.2677 87.1486 84.664 87.5739C84.3127 87.6592 84.0033 87.8672 83.7907 88.1594C83.5782 88.4517 83.4763 88.8094 83.5033 89.1703C83.5782 89.9971 84.4623 90.4661 85.0987 90.8541ZM84.2033 88.9498C84.3707 87.7081 86.7097 88.0138 87.2505 90.2738C87.3774 90.7709 87.4448 91.2815 87.4512 91.7942C86.0628 90.2488 84.0858 89.8213 84.2033 88.9498Z" fill="black"/>
<path d="M75.2718 99.7669C75.0825 99.3509 74.4731 99.7128 74.6603 100.124C75.0315 100.936 75.4845 101.708 76.0123 102.427C76.2785 102.79 76.8932 102.438 76.6228 102.069C76.0952 101.35 75.6425 100.578 75.2718 99.7669Z" fill="black"/>
<path d="M124.749 109.511C124.793 110.888 124.837 112.265 124.879 113.643C124.894 114.096 125.601 114.098 125.586 113.643L125.456 109.511C125.443 109.057 124.735 109.055 124.749 109.511Z" fill="black"/>
<path d="M126.703 108.307C126.663 108.33 126.628 108.361 126.6 108.399C126.571 108.435 126.551 108.478 126.539 108.523C126.527 108.567 126.524 108.614 126.531 108.661C126.538 108.707 126.552 108.75 126.576 108.791L128.938 111.857C128.987 111.936 129.064 111.993 129.154 112.017C129.244 112.04 129.34 112.028 129.421 111.984C129.461 111.961 129.496 111.93 129.525 111.892C129.553 111.856 129.573 111.813 129.585 111.768C129.596 111.724 129.6 111.677 129.593 111.63C129.586 111.584 129.571 111.541 129.548 111.5C128.761 110.478 127.974 109.455 127.187 108.434C127.138 108.355 127.061 108.298 126.97 108.274C126.88 108.25 126.784 108.263 126.703 108.307Z" fill="black"/>
<path d="M176.596 86.9634H133.58C133.487 86.9634 133.396 87.0009 133.331 87.0674C133.264 87.1329 133.227 87.2234 133.227 87.317C133.227 87.4106 133.264 87.5011 133.331 87.5666C133.396 87.6332 133.487 87.6706 133.58 87.6706H176.596C176.689 87.6706 176.78 87.6332 176.846 87.5666C176.912 87.5011 176.949 87.4106 176.949 87.317C176.949 87.2234 176.912 87.1329 176.846 87.0674C176.78 87.0009 176.689 86.9634 176.596 86.9634Z" fill="black"/>
<path d="M132.476 108.428C132.497 108.341 132.484 108.249 132.439 108.17C132.396 108.092 132.323 108.034 132.238 108.007C130.877 107.619 129.525 107.202 128.156 106.843C128.065 106.818 127.968 106.831 127.887 106.876C127.805 106.923 127.746 107 127.721 107.091C127.696 107.18 127.707 107.277 127.754 107.359C127.8 107.44 127.877 107.5 127.967 107.525L132.049 108.689C132.141 108.711 132.237 108.695 132.317 108.646C132.397 108.598 132.454 108.52 132.476 108.428Z" fill="black"/>
</svg>
